<?xml version="1.0" encoding="UTF-8" standalone="no"?>
<svg
   width="694.67969pt"
   height="115.98047pt"
   viewBox="0 0 694.67967 115.98047"
   version="1.1"
   id="svg5540"
   sodipodi:docname="fftperiodic.svg"
   inkscape:version="1.2.2 (732a01da63, 2022-12-09)"
   xmlns:inkscape="http://www.inkscape.org/namespaces/inkscape"
   xmlns:sodipodi="http://sodipodi.sourceforge.net/DTD/sodipodi-0.dtd"
   xmlns:xlink="http://www.w3.org/1999/xlink"
   xmlns="http://www.w3.org/2000/svg"
   xmlns:svg="http://www.w3.org/2000/svg">
  <sodipodi:namedview
     id="namedview5542"
     pagecolor="#ffffff"
     bordercolor="#666666"
     borderopacity="1.0"
     inkscape:showpageshadow="2"
     inkscape:pageopacity="0.0"
     inkscape:pagecheckerboard="0"
     inkscape:deskcolor="#d1d1d1"
     inkscape:document-units="pt"
     showgrid="false"
     inkscape:zoom="1.6098404"
     inkscape:cx="462.77881"
     inkscape:cy="96.282839"
     inkscape:window-width="3840"
     inkscape:window-height="2054"
     inkscape:window-x="-11"
     inkscape:window-y="-11"
     inkscape:window-maximized="1"
     inkscape:current-layer="svg5540" />
  <defs
     id="defs4716">
    <g
       id="g4678">
      <g
         id="glyph-0-0">
        <path
           d="m 3.328125,-2.859375 v -0.125 c 0,-0.082031 0.00391,-0.160156 0.015625,-0.234375 0.00781,-0.070313 0.035156,-0.148438 0.078125,-0.234375 0.039063,-0.082031 0.101563,-0.175781 0.1875,-0.28125 0.082031,-0.101563 0.191406,-0.226563 0.328125,-0.375 0.09375,-0.101563 0.175781,-0.195313 0.25,-0.28125 0.070313,-0.09375 0.132813,-0.1875 0.1875,-0.28125 C 4.425781,-4.773438 4.46875,-4.882813 4.5,-5 c 0.03125,-0.113281 0.046875,-0.238281 0.046875,-0.375 0,-0.289063 -0.0625,-0.515625 -0.1875,-0.671875 -0.125,-0.164063 -0.3125,-0.25 -0.5625,-0.25 -0.125,0 -0.234375,0.023437 -0.328125,0.0625 C 3.375,-6.191406 3.289063,-6.132813 3.21875,-6.0625 3.15625,-6 3.097656,-5.914063 3.046875,-5.8125 3.003906,-5.71875 2.960938,-5.613281 2.921875,-5.5 h -0.5625 v -0.765625 c 0.238281,-0.113281 0.488281,-0.210938 0.75,-0.296875 0.269531,-0.09375 0.535156,-0.140625 0.796875,-0.140625 0.269531,0 0.503906,0.03125 0.703125,0.09375 0.195313,0.054687 0.351563,0.132812 0.46875,0.234375 0.125,0.09375 0.210938,0.210937 0.265625,0.34375 0.050781,0.136719 0.078125,0.289062 0.078125,0.453125 0,0.148437 -0.015625,0.28125 -0.046875,0.40625 -0.023437,0.117187 -0.070312,0.234375 -0.140625,0.359375 -0.074219,0.117187 -0.167969,0.242187 -0.28125,0.375 -0.117187,0.136719 -0.261719,0.292969 -0.4375,0.46875 -0.125,0.125 -0.226562,0.234375 -0.296875,0.328125 -0.074219,0.085937 -0.132812,0.167969 -0.171875,0.25 C 4.003906,-3.316406 3.972656,-3.238281 3.953125,-3.15625 3.941406,-3.082031 3.9375,-2.992188 3.9375,-2.890625 v 0.03125 z m 0.71875,0.65625 v 0.9375 h -0.84375 v -0.9375 z m 2.140625,1.65625 v -6.90625 H 1.71875 v 6.90625 z M 6.78125,-8 V 0 H 1.109375 v -8 z m 0,0"
           id="path4585" />
      </g>
      <g
         id="glyph-0-1">
        <path
           d="M 2.640625,-1.359375 V 0 h -1.1875 v -1.359375 z m 2.875,0 V 0 h -1.1875 v -1.359375 z m 2.875,0 V 0 h -1.1875 v -1.359375 z m 0,0"
           id="path4588" />
      </g>
      <g
         id="glyph-1-0">
        <path
           d="M 2.765625,-2.375 V -2.484375 C 2.765625,-2.554688 2.769531,-2.625 2.78125,-2.6875 2.789063,-2.75 2.8125,-2.8125 2.84375,-2.875 2.882813,-2.945313 2.9375,-3.023438 3,-3.109375 3.070313,-3.203125 3.171875,-3.3125 3.296875,-3.4375 3.367188,-3.519531 3.4375,-3.597656 3.5,-3.671875 3.5625,-3.742188 3.613281,-3.820313 3.65625,-3.90625 3.695313,-3.988281 3.726563,-4.078125 3.75,-4.171875 c 0.03125,-0.09375 0.046875,-0.195313 0.046875,-0.3125 0,-0.238281 -0.054687,-0.425781 -0.15625,-0.5625 C 3.535156,-5.179688 3.378906,-5.25 3.171875,-5.25 3.066406,-5.25 2.972656,-5.234375 2.890625,-5.203125 2.816406,-5.171875 2.75,-5.125 2.6875,-5.0625 2.632813,-5.007813 2.585938,-4.941406 2.546875,-4.859375 2.503906,-4.773438 2.46875,-4.6875 2.4375,-4.59375 H 1.96875 v -0.625 c 0.195313,-0.101563 0.40625,-0.191406 0.625,-0.265625 0.226563,-0.070313 0.453125,-0.109375 0.671875,-0.109375 0.226563,0 0.421875,0.027344 0.578125,0.078125 0.164063,0.042969 0.296875,0.105469 0.390625,0.1875 0.101563,0.085937 0.175781,0.183594 0.21875,0.296875 0.050781,0.117187 0.078125,0.242187 0.078125,0.375 0,0.125 -0.015625,0.242187 -0.046875,0.34375 -0.023437,0.09375 -0.0625,0.195312 -0.125,0.296875 -0.054687,0.09375 -0.132812,0.199219 -0.234375,0.3125 -0.09375,0.117187 -0.214844,0.246094 -0.359375,0.390625 -0.105469,0.105469 -0.1875,0.195312 -0.25,0.265625 C 3.453125,-2.972656 3.40625,-2.90625 3.375,-2.84375 3.34375,-2.78125 3.320313,-2.710938 3.3125,-2.640625 3.300781,-2.578125 3.296875,-2.5 3.296875,-2.40625 V -2.375 Z M 3.375,-1.84375 V -1.0625 H 2.671875 v -0.78125 z m 1.78125,1.390625 V -6.21875 H 1.4375 v 5.765625 z m 0.5,-6.21875 V 0 H 0.921875 v -6.671875 z m 0,0"
           id="path4591" />
      </g>
      <g
         id="glyph-1-1">
        <path
           d="M 3.34375,-6.671875 3.296875,-6.4375 C 3.148438,-6.414063 3.035156,-6.367188 2.953125,-6.296875 2.878906,-6.222656 2.84375,-6.113281 2.84375,-5.96875 2.84375,-5.757813 2.894531,-5.5 3,-5.1875 L 3.40625,-4 4.3125,-5.140625 c 0.132813,-0.175781 0.238281,-0.320313 0.3125,-0.4375 0.082031,-0.113281 0.140625,-0.210938 0.171875,-0.296875 0.039063,-0.082031 0.0625,-0.160156 0.0625,-0.234375 0,-0.082031 -0.027344,-0.15625 -0.078125,-0.21875 C 4.726563,-6.390625 4.640625,-6.425781 4.515625,-6.4375 L 4.5625,-6.671875 h 1.828125 l -0.0625,0.234375 c -0.09375,0.03125 -0.1875,0.078125 -0.28125,0.140625 C 5.960938,-6.234375 5.859375,-6.132813 5.734375,-6 5.617188,-5.875 5.40625,-5.617188 5.09375,-5.234375 L 3.625,-3.484375 4.34375,-1.5 c 0.101563,0.304687 0.1875,0.53125 0.25,0.6875 0.070313,0.15625 0.132813,0.273437 0.1875,0.34375 0.039063,0.0625 0.082031,0.109375 0.125,0.140625 0.050781,0.03125 0.132813,0.0625 0.25,0.09375 L 5.09375,0 H 3.125 l 0.046875,-0.234375 c 0.15625,-0.03125 0.269531,-0.082031 0.34375,-0.15625 0.082031,-0.082031 0.125,-0.1875 0.125,-0.3125 0,-0.195313 -0.042969,-0.410156 -0.125,-0.640625 l -0.5,-1.5 -1.125,1.40625 c -0.167969,0.210937 -0.289062,0.382812 -0.359375,0.515625 -0.074219,0.125 -0.109375,0.234375 -0.109375,0.328125 0,0.125 0.03125,0.214844 0.09375,0.265625 0.0625,0.042969 0.144531,0.074219 0.25,0.09375 L 1.71875,0 h -1.828125 l 0.0625,-0.234375 C 0.046875,-0.265625 0.132813,-0.3125 0.21875,-0.375 0.300781,-0.4375 0.410156,-0.539063 0.546875,-0.6875 0.679688,-0.84375 0.910156,-1.113281 1.234375,-1.5 L 2.78125,-3.34375 2.0625,-5.359375 C 1.945313,-5.691406 1.851563,-5.921875 1.78125,-6.046875 1.707031,-6.179688 1.640625,-6.273438 1.578125,-6.328125 1.515625,-6.378906 1.429688,-6.414063 1.328125,-6.4375 L 1.375,-6.671875 Z m 0,0"
           id="path4594" />
      </g>
      <g
         id="glyph-1-2">
        <path
           d="M 2.203125,-1.140625 V 0 H 1.21875 v -1.140625 z m 2.40625,0 V 0 h -1 v -1.140625 z m 2.390625,0 V 0 H 6.015625 v -1.140625 z m 0,0"
           id="path4597" />
      </g>
      <g
         id="glyph-2-0">
        <path
           d="M 2.03125,-1.734375 V -1.8125 c 0,-0.050781 0,-0.097656 0,-0.140625 0.00781,-0.050781 0.023438,-0.097656 0.046875,-0.140625 0.03125,-0.050781 0.070313,-0.109375 0.125,-0.171875 C 2.253906,-2.335938 2.320313,-2.414063 2.40625,-2.5 c 0.050781,-0.0625 0.097656,-0.117188 0.140625,-0.171875 0.050781,-0.0625 0.09375,-0.125 0.125,-0.1875 0.03125,-0.0625 0.050781,-0.125 0.0625,-0.1875 0.019531,-0.070313 0.03125,-0.148438 0.03125,-0.234375 0,-0.175781 -0.042969,-0.3125 -0.125,-0.40625 C 2.566406,-3.78125 2.457031,-3.828125 2.3125,-3.828125 c -0.074219,0 -0.140625,0.011719 -0.203125,0.03125 -0.054687,0.023437 -0.101562,0.054687 -0.140625,0.09375 -0.042969,0.042969 -0.078125,0.09375 -0.109375,0.15625 -0.03125,0.0625 -0.058594,0.132812 -0.078125,0.203125 H 1.4375 V -3.8125 C 1.582031,-3.882813 1.734375,-3.945313 1.890625,-4 2.054688,-4.050781 2.21875,-4.078125 2.375,-4.078125 c 0.164063,0 0.304688,0.015625 0.421875,0.046875 0.125,0.03125 0.222656,0.078125 0.296875,0.140625 0.070313,0.0625 0.125,0.136719 0.15625,0.21875 0.039063,0.085937 0.0625,0.171875 0.0625,0.265625 0,0.09375 -0.011719,0.179687 -0.03125,0.25 C 3.257813,-3.082031 3.226563,-3.007813 3.1875,-2.9375 3.144531,-2.863281 3.085938,-2.785156 3.015625,-2.703125 2.941406,-2.617188 2.851563,-2.523438 2.75,-2.421875 2.675781,-2.335938 2.613281,-2.269531 2.5625,-2.21875 2.519531,-2.164063 2.484375,-2.113281 2.453125,-2.0625 2.429688,-2.019531 2.414063,-1.972656 2.40625,-1.921875 c 0,0.042969 0,0.09375 0,0.15625 v 0.03125 z m 0.4375,0.390625 v 0.578125 H 1.953125 V -1.34375 Z m 1.296875,1.015625 V -4.53125 h -2.71875 v 4.203125 z M 4.140625,-4.875 V 0 h -3.46875 v -4.875 z m 0,0"
           id="path4600" />
      </g>
      <g
         id="glyph-2-1">
        <path
           d="M 3.21875,-4.625 C 3.25,-4.59375 3.273438,-4.5625 3.296875,-4.53125 3.316406,-4.5 3.34375,-4.46875 3.375,-4.4375 v 0.21875 C 3.082031,-4.226563 2.820313,-4.191406 2.59375,-4.109375 2.363281,-4.023438 2.160156,-3.90625 1.984375,-3.75 1.804688,-3.59375 1.65625,-3.398438 1.53125,-3.171875 1.414063,-2.953125 1.328125,-2.695313 1.265625,-2.40625 l 0.03125,0.015625 C 1.398438,-2.460938 1.5,-2.519531 1.59375,-2.5625 1.6875,-2.613281 1.78125,-2.65625 1.875,-2.6875 1.976563,-2.71875 2.082031,-2.738281 2.1875,-2.75 c 0.101563,-0.019531 0.210938,-0.03125 0.328125,-0.03125 0.207031,0 0.390625,0.03125 0.546875,0.09375 0.164063,0.0625 0.304688,0.15625 0.421875,0.28125 0.113281,0.117187 0.195313,0.257812 0.25,0.421875 0.0625,0.167969 0.09375,0.355469 0.09375,0.5625 0,0.210937 -0.039062,0.40625 -0.109375,0.59375 -0.074219,0.1875 -0.183594,0.351562 -0.328125,0.484375 -0.136719,0.136719 -0.3125,0.242187 -0.53125,0.3125 C 2.648438,0.0390625 2.40625,0.078125 2.125,0.078125 1.59375,0.078125 1.1875,-0.0703125 0.90625,-0.375 0.632813,-0.6875 0.5,-1.140625 0.5,-1.734375 0.5,-2.003906 0.53125,-2.257813 0.59375,-2.5 0.65625,-2.738281 0.742188,-2.960938 0.859375,-3.171875 0.972656,-3.390625 1.109375,-3.582031 1.265625,-3.75 1.429688,-3.925781 1.613281,-4.078125 1.8125,-4.203125 2.019531,-4.328125 2.238281,-4.425781 2.46875,-4.5 c 0.238281,-0.070313 0.488281,-0.113281 0.75,-0.125 z m -0.953125,2.25 c -0.15625,0 -0.304687,0.027344 -0.4375,0.078125 -0.136719,0.042969 -0.261719,0.101562 -0.375,0.171875 -0.054687,0.03125 -0.09375,0.0625 -0.125,0.09375 -0.03125,0.023437 -0.054687,0.054687 -0.0625,0.09375 -0.011719,0.042969 -0.023437,0.09375 -0.03125,0.15625 0,0.054687 0,0.132812 0,0.234375 0,0.84375 0.304688,1.265625 0.921875,1.265625 0.164063,0 0.304688,-0.023438 0.421875,-0.078125 C 2.703125,-0.410156 2.800781,-0.476563 2.875,-0.5625 2.945313,-0.65625 3,-0.769531 3.03125,-0.90625 3.070313,-1.039063 3.09375,-1.195313 3.09375,-1.375 3.09375,-1.6875 3.019531,-1.929688 2.875,-2.109375 2.738281,-2.285156 2.535156,-2.375 2.265625,-2.375 Z m 0,0"
           id="path4603" />
      </g>
      <g
         id="glyph-2-2">
        <path
           d="M 3.359375,-5.109375 0.78125,1.53125 H 0.21875 L 2.8125,-5.109375 Z m 0,0"
           id="path4606" />
      </g>
      <g
         id="glyph-2-3">
        <path
           d="m 2.609375,-0.9375 c 0,0.074219 0,0.136719 0,0.1875 0.00781,0.054687 0.019531,0.101562 0.03125,0.140625 0.00781,0.03125 0.019531,0.0625 0.03125,0.09375 0.019531,0.023437 0.046875,0.042969 0.078125,0.0625 0.019531,0.03125 0.054688,0.058594 0.109375,0.078125 0.050781,0.011719 0.113281,0.023437 0.1875,0.03125 0.070313,0.011719 0.160156,0.023437 0.265625,0.03125 0.101563,0 0.226563,0 0.375,0 V 0 H 0.84375 v -0.3125 c 0.144531,0 0.265625,0 0.359375,0 0.101563,-0.007813 0.1875,-0.019531 0.25,-0.03125 C 1.523438,-0.363281 1.582031,-0.378906 1.625,-0.390625 1.664063,-0.398438 1.703125,-0.414063 1.734375,-0.4375 1.765625,-0.457031 1.789063,-0.476563 1.8125,-0.5 1.84375,-0.53125 1.863281,-0.5625 1.875,-0.59375 1.882813,-0.632813 1.894531,-0.679688 1.90625,-0.734375 1.914063,-0.796875 1.921875,-0.863281 1.921875,-0.9375 V -3.5 c 0,-0.09375 -0.023437,-0.15625 -0.0625,-0.1875 C 1.828125,-3.726563 1.78125,-3.75 1.71875,-3.75 c -0.074219,0 -0.183594,0.039062 -0.328125,0.109375 -0.148437,0.074219 -0.335937,0.1875 -0.5625,0.34375 -0.03125,-0.0625 -0.0625,-0.117188 -0.09375,-0.171875 C 0.710938,-3.519531 0.6875,-3.578125 0.65625,-3.640625 c 0.289063,-0.15625 0.582031,-0.3125 0.875,-0.46875 0.289063,-0.164063 0.582031,-0.328125 0.875,-0.484375 H 2.625 c 0,0.125 -0.00781,0.242187 -0.015625,0.34375 0,0.105469 0,0.210937 0,0.3125 0,0.09375 0,0.1875 0,0.28125 z m 0,0"
           id="path4609" />
      </g>
      <g
         id="glyph-2-4">
        <path
           d="M 3.78125,-4.390625 1.6875,0.015625 H 1.140625 v -0.15625 L 3.0625,-3.875 V -3.9375 H 1.546875 c -0.105469,0 -0.1875,0.011719 -0.25,0.03125 -0.0625,0.023437 -0.117187,0.046875 -0.15625,0.078125 C 1.117188,-3.816406 1.101563,-3.800781 1.09375,-3.78125 1.082031,-3.757813 1.066406,-3.734375 1.046875,-3.703125 1.035156,-3.679688 1.019531,-3.644531 1,-3.59375 0.988281,-3.539063 0.972656,-3.476563 0.953125,-3.40625 H 0.59375 L 0.671875,-4.5625 H 3.78125 Z m 0,0"
           id="path4612" />
      </g>
      <g
         id="glyph-2-5">
        <path
           d="M 0.609375,-1.8125 V -2.359375 H 4.71875 V -1.8125 Z m 0,0"
           id="path4615" />
      </g>
      <g
         id="glyph-2-6">
        <path
           d="m 2.921875,-2.40625 c 0,0.011719 0,0.023437 0,0.03125 0.00781,0.011719 0.015625,0.023437 0.015625,0.03125 0.28125,0.09375 0.488281,0.242187 0.625,0.4375 0.132813,0.1875 0.203125,0.40625 0.203125,0.65625 0,0.199219 -0.042969,0.382812 -0.125,0.546875 C 3.566406,-0.535156 3.457031,-0.394531 3.3125,-0.28125 3.164063,-0.164063 2.988281,-0.078125 2.78125,-0.015625 2.570313,0.046875 2.335938,0.078125 2.078125,0.078125 1.835938,0.078125 1.617188,0.0507813 1.421875,0 1.222656,-0.0625 1.050781,-0.144531 0.90625,-0.25 0.757813,-0.363281 0.644531,-0.5 0.5625,-0.65625 0.488281,-0.8125 0.453125,-0.988281 0.453125,-1.1875 c 0,-0.144531 0.019531,-0.269531 0.0625,-0.375 0.039063,-0.113281 0.097656,-0.210938 0.171875,-0.296875 0.070313,-0.09375 0.160156,-0.171875 0.265625,-0.234375 0.101563,-0.070313 0.21875,-0.140625 0.34375,-0.203125 V -2.34375 c -0.273437,-0.113281 -0.46875,-0.257813 -0.59375,-0.4375 -0.125,-0.175781 -0.1875,-0.390625 -0.1875,-0.640625 0,-0.175781 0.039063,-0.335938 0.125,-0.484375 C 0.722656,-4.0625 0.835938,-4.191406 0.984375,-4.296875 1.128906,-4.398438 1.300781,-4.476563 1.5,-4.53125 1.695313,-4.59375 1.910156,-4.625 2.140625,-4.625 c 0.269531,0 0.503906,0.03125 0.703125,0.09375 0.207031,0.054687 0.375,0.132812 0.5,0.234375 0.132813,0.09375 0.234375,0.214844 0.296875,0.359375 0.0625,0.136719 0.09375,0.292969 0.09375,0.46875 0,0.242187 -0.070312,0.449219 -0.203125,0.625 -0.136719,0.167969 -0.339844,0.3125 -0.609375,0.4375 z M 1.25,-3.4375 c 0,0.136719 0.015625,0.261719 0.046875,0.375 0.03125,0.117187 0.082031,0.214844 0.15625,0.296875 0.082031,0.074219 0.175781,0.132812 0.28125,0.171875 0.113281,0.042969 0.25,0.0625 0.40625,0.0625 0.15625,0 0.289063,-0.019531 0.40625,-0.0625 C 2.660156,-2.644531 2.75,-2.707031 2.8125,-2.78125 2.882813,-2.863281 2.9375,-2.957031 2.96875,-3.0625 3,-3.164063 3.015625,-3.273438 3.015625,-3.390625 c 0,-0.144531 -0.027344,-0.269531 -0.078125,-0.375 C 2.894531,-3.878906 2.832031,-3.972656 2.75,-4.046875 2.675781,-4.128906 2.585938,-4.1875 2.484375,-4.21875 2.378906,-4.257813 2.257813,-4.28125 2.125,-4.28125 c -0.28125,0 -0.5,0.074219 -0.65625,0.21875 C 1.320313,-3.914063 1.25,-3.707031 1.25,-3.4375 Z m -0.0625,2.171875 c 0,0.148437 0.015625,0.28125 0.046875,0.40625 0.039063,0.117187 0.101563,0.21875 0.1875,0.3125 0.082031,0.085937 0.179688,0.152344 0.296875,0.203125 0.113281,0.042969 0.25,0.0625 0.40625,0.0625 0.164063,0 0.304688,-0.023438 0.421875,-0.078125 0.113281,-0.050781 0.207031,-0.117188 0.28125,-0.203125 0.070313,-0.082031 0.125,-0.175781 0.15625,-0.28125 0.03125,-0.113281 0.046875,-0.234375 0.046875,-0.359375 0,-0.15625 -0.023437,-0.289063 -0.0625,-0.40625 -0.042969,-0.125 -0.105469,-0.226563 -0.1875,-0.3125 C 2.707031,-2.003906 2.613281,-2.066406 2.5,-2.109375 2.382813,-2.160156 2.257813,-2.1875 2.125,-2.1875 c -0.167969,0 -0.3125,0.027344 -0.4375,0.078125 -0.117187,0.042969 -0.210937,0.105469 -0.28125,0.1875 -0.074219,0.074219 -0.132812,0.167969 -0.171875,0.28125 -0.03125,0.117187 -0.046875,0.242187 -0.046875,0.375 z m 0,0"
           id="path4618" />
      </g>
      <g
         id="glyph-2-7">
        <path
           d="m 0.625,-0.953125 h 0.453125 c 0.070313,0.242187 0.179688,0.414062 0.328125,0.515625 0.144531,0.105469 0.332031,0.15625 0.5625,0.15625 0.3125,0 0.546875,-0.078125 0.703125,-0.234375 0.15625,-0.164063 0.234375,-0.421875 0.234375,-0.765625 0,-0.332031 -0.085937,-0.578125 -0.25,-0.734375 -0.167969,-0.164063 -0.402344,-0.25 -0.703125,-0.25 -0.085937,0 -0.164062,0 -0.234375,0 -0.0625,0 -0.125,0.00781 -0.1875,0.015625 -0.0625,0.011719 -0.125,0.027344 -0.1875,0.046875 C 1.28125,-2.191406 1.207031,-2.175781 1.125,-2.15625 L 0.84375,-2.3125 v -2.25 H 2.8125 c 0.0625,0 0.109375,0 0.140625,0 0.03125,-0.00781 0.054688,-0.019531 0.078125,-0.03125 0.03125,-0.019531 0.050781,-0.046875 0.0625,-0.078125 0.019531,-0.03125 0.039063,-0.070313 0.0625,-0.125 h 0.3125 L 3.421875,-3.9375 h -2.09375 v 1.40625 c 0.125,-0.039063 0.257813,-0.070313 0.40625,-0.09375 0.15625,-0.03125 0.3125,-0.046875 0.46875,-0.046875 0.21875,0 0.414063,0.03125 0.59375,0.09375 0.175781,0.054687 0.328125,0.136719 0.453125,0.25 0.125,0.117187 0.222656,0.257812 0.296875,0.421875 0.070313,0.15625 0.109375,0.335937 0.109375,0.53125 0,0.230469 -0.042969,0.433594 -0.125,0.609375 C 3.457031,-0.585938 3.347656,-0.4375 3.203125,-0.3125 3.054688,-0.1875 2.875,-0.0859375 2.65625,-0.015625 2.445313,0.046875 2.210938,0.078125 1.953125,0.078125 1.742188,0.078125 1.53125,0.0546875 1.3125,0.015625 1.09375,-0.0234375 0.863281,-0.0859375 0.625,-0.171875 Z m 0,0"
           id="path4621" />
      </g>
      <g
         id="glyph-2-8">
        <path
           d="m 1.875,-0.21875 c 0.0625,-0.019531 0.117188,-0.035156 0.171875,-0.046875 0.050781,-0.019531 0.09375,-0.035156 0.125,-0.046875 0.03125,-0.019531 0.050781,-0.046875 0.0625,-0.078125 C 2.253906,-0.421875 2.269531,-0.457031 2.28125,-0.5 c 0.00781,-0.039063 0.015625,-0.09375 0.015625,-0.15625 0,-0.0625 0,-0.140625 0,-0.234375 v -0.46875 h -2 v -0.28125 C 0.648438,-2.128906 1,-2.613281 1.34375,-3.09375 1.695313,-3.582031 2.050781,-4.078125 2.40625,-4.578125 h 0.5625 v 2.84375 h 0.0625 c 0.101563,0 0.179688,0 0.234375,0 0.0625,-0.00781 0.109375,-0.03125 0.140625,-0.0625 0.039063,-0.03125 0.070313,-0.070313 0.09375,-0.125 0.03125,-0.050781 0.0625,-0.125 0.09375,-0.21875 h 0.296875 c 0,0.136719 -0.00781,0.273437 -0.015625,0.40625 -0.011719,0.125 -0.023437,0.25 -0.03125,0.375 h -0.875 v 0.46875 c 0,0.148437 0,0.257812 0,0.328125 0.00781,0.074219 0.03125,0.132812 0.0625,0.171875 0.03125,0.042969 0.070313,0.078125 0.125,0.109375 0.0625,0.023437 0.144531,0.042969 0.25,0.0625 V 0 H 1.875 Z M 0.921875,-1.734375 h 1.375 v -0.71875 c 0,-0.070313 0,-0.164063 0,-0.28125 0.00781,-0.125 0.015625,-0.25 0.015625,-0.375 0,-0.125 0,-0.238281 0,-0.34375 0.00781,-0.113281 0.019531,-0.207031 0.03125,-0.28125 H 2.296875 c -0.230469,0.335937 -0.460937,0.664062 -0.6875,0.984375 -0.21875,0.324219 -0.449219,0.652344 -0.6875,0.984375 z m 0,0"
           id="path4624" />
      </g>
      <g
         id="glyph-2-9">
        <path
           d="M 0.609375,-3.5625 V -4.265625 C 0.890625,-4.378906 1.15625,-4.46875 1.40625,-4.53125 1.65625,-4.59375 1.894531,-4.625 2.125,-4.625 c 0.1875,0 0.363281,0.023437 0.53125,0.0625 0.164063,0.042969 0.304688,0.105469 0.421875,0.1875 0.125,0.085937 0.21875,0.1875 0.28125,0.3125 0.070313,0.117187 0.109375,0.257812 0.109375,0.421875 0,0.148437 -0.023437,0.28125 -0.0625,0.40625 -0.042969,0.117187 -0.109375,0.21875 -0.203125,0.3125 C 3.117188,-2.828125 3.007813,-2.738281 2.875,-2.65625 2.75,-2.582031 2.601563,-2.507813 2.4375,-2.4375 v 0.03125 c 0.15625,0.03125 0.300781,0.078125 0.4375,0.140625 0.144531,0.0625 0.269531,0.148437 0.375,0.25 0.101563,0.09375 0.179688,0.203125 0.234375,0.328125 0.0625,0.125 0.09375,0.265625 0.09375,0.421875 0,0.1875 -0.039062,0.367187 -0.109375,0.53125 C 3.394531,-0.578125 3.285156,-0.4375 3.140625,-0.3125 3.003906,-0.195313 2.832031,-0.101563 2.625,-0.03125 2.414063,0.03125 2.171875,0.0625 1.890625,0.0625 1.660156,0.0625 1.429688,0.0390625 1.203125,0 0.984375,-0.0507813 0.769531,-0.109375 0.5625,-0.171875 v -0.78125 h 0.453125 c 0.039063,0.125 0.085938,0.230469 0.140625,0.3125 0.050781,0.085937 0.113281,0.152344 0.1875,0.203125 0.070313,0.054687 0.148438,0.09375 0.234375,0.125 0.09375,0.023437 0.195313,0.03125 0.3125,0.03125 0.3125,0 0.546875,-0.070313 0.703125,-0.21875 0.15625,-0.144531 0.234375,-0.367188 0.234375,-0.671875 0,-0.3125 -0.105469,-0.550781 -0.3125,-0.71875 C 2.304688,-2.054688 2,-2.140625 1.59375,-2.140625 h -0.3125 v -0.34375 c 0.25,-0.00781 0.460938,-0.039063 0.640625,-0.09375 C 2.109375,-2.640625 2.257813,-2.71875 2.375,-2.8125 2.5,-2.90625 2.59375,-3.015625 2.65625,-3.140625 2.71875,-3.265625 2.75,-3.394531 2.75,-3.53125 2.75,-3.757813 2.675781,-3.9375 2.53125,-4.0625 2.394531,-4.195313 2.203125,-4.265625 1.953125,-4.265625 c -0.21875,0 -0.402344,0.0625 -0.546875,0.1875 C 1.257813,-3.960938 1.144531,-3.789063 1.0625,-3.5625 Z m 0,0"
           id="path4627" />
      </g>
      <g
         id="glyph-2-10">
        <path
           d="m 2.59375,-0.578125 c 0.113281,0 0.203125,-0.003906 0.265625,-0.015625 0.0625,-0.007813 0.113281,-0.023438 0.15625,-0.046875 0.050781,-0.03125 0.09375,-0.078125 0.125,-0.140625 C 3.171875,-0.84375 3.207031,-0.921875 3.25,-1.015625 H 3.578125 C 3.566406,-0.847656 3.554688,-0.675781 3.546875,-0.5 3.535156,-0.332031 3.523438,-0.164063 3.515625,0 h -3.03125 v -0.1875 c 0.0625,-0.125 0.128906,-0.25 0.203125,-0.375 0.070313,-0.125 0.15625,-0.25 0.25,-0.375 0.09375,-0.132813 0.203125,-0.269531 0.328125,-0.40625 0.125,-0.132813 0.257813,-0.273438 0.40625,-0.421875 0.21875,-0.226563 0.394531,-0.421875 0.53125,-0.578125 0.144531,-0.15625 0.257813,-0.296875 0.34375,-0.421875 0.082031,-0.125 0.140625,-0.238281 0.171875,-0.34375 0.03125,-0.101563 0.046875,-0.21875 0.046875,-0.34375 0,-0.113281 -0.023437,-0.222656 -0.0625,-0.328125 C 2.671875,-3.882813 2.625,-3.972656 2.5625,-4.046875 c -0.0625,-0.070313 -0.148437,-0.125 -0.25,-0.15625 -0.09375,-0.039063 -0.210937,-0.0625 -0.34375,-0.0625 -0.21875,0 -0.40625,0.0625 -0.5625,0.1875 C 1.257813,-3.960938 1.144531,-3.789063 1.0625,-3.5625 H 0.59375 V -4.265625 C 0.90625,-4.390625 1.1875,-4.476563 1.4375,-4.53125 1.695313,-4.59375 1.925781,-4.625 2.125,-4.625 c 0.25,0 0.460938,0.03125 0.640625,0.09375 0.175781,0.054687 0.316406,0.125 0.421875,0.21875 0.113281,0.09375 0.191406,0.210937 0.234375,0.34375 C 3.472656,-3.832031 3.5,-3.6875 3.5,-3.53125 c 0,0.085937 -0.00781,0.167969 -0.015625,0.25 -0.011719,0.085937 -0.039062,0.167969 -0.078125,0.25 -0.03125,0.074219 -0.074219,0.152344 -0.125,0.234375 -0.054687,0.074219 -0.117187,0.152344 -0.1875,0.234375 -0.0625,0.074219 -0.140625,0.164062 -0.234375,0.265625 -0.09375,0.105469 -0.199219,0.214844 -0.3125,0.328125 C 2.429688,-1.851563 2.3125,-1.734375 2.1875,-1.609375 2.0625,-1.492188 1.941406,-1.375 1.828125,-1.25 1.710938,-1.125 1.601563,-1.003906 1.5,-0.890625 c -0.09375,0.117187 -0.171875,0.21875 -0.234375,0.3125 z m 0,0"
           id="path4630" />
      </g>
      <g
         id="glyph-2-11">
        <path
           d="M 0.28125,-0.21875 C 0.351563,-0.226563 0.410156,-0.238281 0.453125,-0.25 c 0.050781,-0.019531 0.09375,-0.054688 0.125,-0.109375 0.039063,-0.050781 0.078125,-0.128906 0.109375,-0.234375 0.03125,-0.101563 0.066406,-0.25 0.109375,-0.4375 L 1.375,-3.625 c 0.019531,-0.101563 0.035156,-0.195313 0.046875,-0.28125 0.019531,-0.082031 0.03125,-0.148438 0.03125,-0.203125 0,-0.101563 -0.03125,-0.175781 -0.09375,-0.21875 C 1.304688,-4.378906 1.207031,-4.40625 1.0625,-4.40625 L 1.125,-4.625 h 1.40625 c 0.226563,0 0.425781,0.011719 0.59375,0.03125 0.175781,0.023437 0.328125,0.054687 0.453125,0.09375 0.164063,0.042969 0.316406,0.109375 0.453125,0.203125 0.144531,0.09375 0.269531,0.210937 0.375,0.34375 0.101563,0.136719 0.179688,0.292969 0.234375,0.46875 0.0625,0.179687 0.09375,0.382812 0.09375,0.609375 0,0.417969 -0.070312,0.804687 -0.203125,1.15625 -0.136719,0.355469 -0.328125,0.664062 -0.578125,0.921875 -0.25,0.25 -0.5625,0.449219 -0.9375,0.59375 C 2.648438,-0.0664063 2.226563,0 1.75,0 H 0.234375 Z M 1.34375,-0.375 c 0.00781,0 0.03125,0 0.0625,0 0.03125,0 0.066406,0 0.109375,0 0.039063,0 0.082031,0 0.125,0 0.039063,0 0.070313,0 0.09375,0 0.394531,0 0.726563,-0.054688 1,-0.171875 0.269531,-0.125 0.5,-0.3125 0.6875,-0.5625 C 3.617188,-1.367188 3.757813,-1.644531 3.84375,-1.9375 3.9375,-2.226563 3.984375,-2.539063 3.984375,-2.875 c 0,-0.21875 -0.03125,-0.410156 -0.09375,-0.578125 -0.0625,-0.175781 -0.152344,-0.320313 -0.265625,-0.4375 -0.117187,-0.125 -0.261719,-0.21875 -0.4375,-0.28125 -0.167969,-0.0625 -0.367187,-0.09375 -0.59375,-0.09375 -0.085937,0 -0.15625,0.00781 -0.21875,0.015625 -0.0625,0 -0.121094,0 -0.171875,0 z m 0,0"
           id="path4633" />
      </g>
      <g
         id="glyph-2-12">
        <path
           d="M 4.125,-3.53125 H 3.75 C 3.738281,-3.675781 3.71875,-3.796875 3.6875,-3.890625 3.65625,-3.992188 3.609375,-4.078125 3.546875,-4.140625 3.492188,-4.203125 3.421875,-4.25 3.328125,-4.28125 3.242188,-4.3125 3.132813,-4.328125 3,-4.328125 c -0.167969,0 -0.328125,0.042969 -0.484375,0.125 C 2.359375,-4.117188 2.210938,-4 2.078125,-3.84375 1.941406,-3.695313 1.820313,-3.523438 1.71875,-3.328125 1.625,-3.128906 1.535156,-2.914063 1.453125,-2.6875 1.378906,-2.46875 1.320313,-2.238281 1.28125,-2 1.25,-1.769531 1.234375,-1.546875 1.234375,-1.328125 c 0,0.367187 0.066406,0.632812 0.203125,0.796875 0.132813,0.15625 0.34375,0.234375 0.625,0.234375 0.132813,0 0.257813,-0.015625 0.375,-0.046875 C 2.550781,-0.375 2.65625,-0.421875 2.75,-0.484375 2.851563,-0.554688 2.945313,-0.644531 3.03125,-0.75 3.113281,-0.851563 3.191406,-0.976563 3.265625,-1.125 H 3.65625 l -0.234375,1 c -0.125,0.03125 -0.25,0.0625 -0.375,0.09375 C 2.929688,-0.0078125 2.816406,0.00390625 2.703125,0.015625 2.585938,0.0351563 2.472656,0.0507813 2.359375,0.0625 2.253906,0.0703125 2.144531,0.078125 2.03125,0.078125 c -0.25,0 -0.476562,-0.0390625 -0.671875,-0.109375 -0.1875,-0.070313 -0.34375,-0.171875 -0.46875,-0.296875 C 0.765625,-0.460938 0.664063,-0.625 0.59375,-0.8125 0.53125,-1.007813 0.5,-1.226563 0.5,-1.46875 c 0,-0.3125 0.03125,-0.609375 0.09375,-0.890625 0.0625,-0.28125 0.148438,-0.539063 0.265625,-0.78125 0.113281,-0.238281 0.25,-0.453125 0.40625,-0.640625 0.15625,-0.195313 0.328125,-0.363281 0.515625,-0.5 0.1875,-0.132813 0.382813,-0.238281 0.59375,-0.3125 0.21875,-0.070313 0.441406,-0.109375 0.671875,-0.109375 0.113281,0 0.21875,0.00781 0.3125,0.015625 0.101563,0 0.207031,0.011719 0.3125,0.03125 0.101563,0.011719 0.207031,0.03125 0.3125,0.0625 C 4.097656,-4.570313 4.21875,-4.539063 4.34375,-4.5 Z m 0,0"
           id="path4636" />
      </g>
      <g
         id="glyph-3-0">
        <path
           d="m 3.046875,-2.609375 v -0.125 c 0,-0.070313 0.00391,-0.140625 0.015625,-0.203125 0.00781,-0.070313 0.03125,-0.144531 0.0625,-0.21875 0.039063,-0.070313 0.097656,-0.15625 0.171875,-0.25 0.082031,-0.101563 0.1875,-0.222656 0.3125,-0.359375 0.082031,-0.09375 0.15625,-0.179688 0.21875,-0.265625 C 3.898438,-4.113281 3.957031,-4.195313 4,-4.28125 4.050781,-4.375 4.085938,-4.472656 4.109375,-4.578125 c 0.03125,-0.101563 0.046875,-0.21875 0.046875,-0.34375 0,-0.269531 -0.058594,-0.476563 -0.171875,-0.625 -0.117187,-0.144531 -0.28125,-0.21875 -0.5,-0.21875 -0.117187,0 -0.21875,0.023437 -0.3125,0.0625 -0.085937,0.03125 -0.15625,0.085937 -0.21875,0.15625 -0.0625,0.0625 -0.121094,0.140625 -0.171875,0.234375 -0.042969,0.085937 -0.078125,0.179687 -0.109375,0.28125 H 2.15625 v -0.703125 c 0.21875,-0.101563 0.445313,-0.195313 0.6875,-0.28125 0.25,-0.082031 0.492188,-0.125 0.734375,-0.125 0.25,0 0.460938,0.027344 0.640625,0.078125 0.175781,0.054687 0.316406,0.125 0.421875,0.21875 0.113281,0.09375 0.195313,0.203125 0.25,0.328125 0.050781,0.125 0.078125,0.261719 0.078125,0.40625 0,0.136719 -0.015625,0.261719 -0.046875,0.375 -0.023437,0.105469 -0.070312,0.214844 -0.140625,0.328125 -0.0625,0.105469 -0.148437,0.21875 -0.25,0.34375 -0.105469,0.125 -0.234375,0.273437 -0.390625,0.4375 -0.117187,0.117187 -0.210937,0.214844 -0.28125,0.296875 -0.0625,0.074219 -0.117187,0.148437 -0.15625,0.21875 -0.042969,0.0625 -0.070312,0.132812 -0.078125,0.203125 -0.011719,0.074219 -0.015625,0.164062 -0.015625,0.265625 v 0.03125 z m 0.65625,0.59375 V -1.15625 H 2.9375 V -2.015625 Z M 5.65625,-0.5 V -6.8125 H 1.578125 V -0.5 Z M 6.203125,-7.3125 V 0 h -5.1875 v -7.3125 z m 0,0"
           id="path4639" />
      </g>
      <g
         id="glyph-3-1">
        <path
           d="M 2.421875,-1.25 V 0 h -1.09375 v -1.25 z m 2.625,0 V 0 H 3.96875 v -1.25 z m 2.625,0 V 0 H 6.59375 v -1.25 z m 0,0"
           id="path4642" />
      </g>
      <g
         id="glyph-3-2">
        <path
           d="M 0.796875,-2.78125 V -3.5 H 7.40625 v 0.71875 z m 0,0"
           id="path4645" />
      </g>
      <g
         id="glyph-3-3">
        <path
           d="M 0.796875,-0.296875 V -1.4375 h 0.65625 c 0.101563,0.367187 0.265625,0.636719 0.484375,0.8125 0.21875,0.167969 0.5,0.25 0.84375,0.25 0.46875,0 0.820313,-0.140625 1.0625,-0.421875 0.25,-0.289063 0.375,-0.71875 0.375,-1.28125 0,-0.382813 -0.070312,-0.695313 -0.203125,-0.9375 C 3.890625,-3.265625 3.71875,-3.445313 3.5,-3.5625 3.289063,-3.675781 3.039063,-3.734375 2.75,-3.734375 2.5,-3.734375 2.285156,-3.71875 2.109375,-3.6875 1.941406,-3.65625 1.757813,-3.609375 1.5625,-3.546875 l -0.4375,-0.25 v -3.53125 h 2.953125 c 0.125,0 0.210938,-0.00391 0.265625,-0.015625 C 4.394531,-7.363281 4.4375,-7.394531 4.46875,-7.4375 4.5,-7.476563 4.535156,-7.554688 4.578125,-7.671875 H 5 L 4.921875,-6.4375 H 1.84375 v 2.359375 C 2.03125,-4.148438 2.226563,-4.207031 2.4375,-4.25 2.65625,-4.289063 2.875,-4.3125 3.09375,-4.3125 c 0.425781,0 0.800781,0.089844 1.125,0.265625 0.332031,0.167969 0.585938,0.414062 0.765625,0.734375 0.1875,0.324219 0.28125,0.695312 0.28125,1.109375 0,0.480469 -0.105469,0.890625 -0.3125,1.234375 C 4.753906,-0.625 4.46875,-0.363281 4.09375,-0.1875 3.71875,-0.0078125 3.269531,0.078125 2.75,0.078125 c -0.625,0 -1.277344,-0.125 -1.953125,-0.375 z m 0,0"
           id="path4648" />
      </g>
      <g
         id="glyph-3-4">
        <path
           d="m 4.25,-3.859375 0.015625,0.0625 c 0.394531,0.15625 0.695313,0.386719 0.90625,0.6875 0.207031,0.304687 0.3125,0.667969 0.3125,1.09375 0,0.417969 -0.101562,0.789062 -0.296875,1.109375 -0.199219,0.3125 -0.492187,0.558594 -0.875,0.734375 -0.375,0.16796875 -0.820312,0.25 -1.328125,0.25 C 2.503906,0.078125 2.082031,0 1.71875,-0.15625 1.363281,-0.3125 1.085938,-0.539063 0.890625,-0.84375 0.691406,-1.15625 0.59375,-1.519531 0.59375,-1.9375 c 0,-0.300781 0.050781,-0.566406 0.15625,-0.796875 0.113281,-0.226563 0.253906,-0.414063 0.421875,-0.5625 0.175781,-0.15625 0.394531,-0.296875 0.65625,-0.421875 v -0.0625 C 1.054688,-4.113281 0.671875,-4.6875 0.671875,-5.5 c 0,-0.363281 0.097656,-0.6875 0.296875,-0.96875 0.207031,-0.289063 0.492188,-0.519531 0.859375,-0.6875 0.375,-0.164063 0.789063,-0.25 1.25,-0.25 0.507813,0 0.941406,0.074219 1.296875,0.21875 0.351563,0.148437 0.617188,0.355469 0.796875,0.625 0.175781,0.273437 0.265625,0.601562 0.265625,0.984375 0,0.398437 -0.101562,0.734375 -0.296875,1.015625 C 4.953125,-4.28125 4.65625,-4.046875 4.25,-3.859375 Z m -2.578125,-1.6875 c 0,0.21875 0.023438,0.421875 0.078125,0.609375 0.050781,0.179687 0.128906,0.335937 0.234375,0.46875 0.113281,0.136719 0.257813,0.246094 0.4375,0.328125 0.175781,0.085937 0.394531,0.125 0.65625,0.125 0.300781,0 0.550781,-0.054688 0.75,-0.171875 0.195313,-0.113281 0.34375,-0.28125 0.4375,-0.5 0.101563,-0.226563 0.15625,-0.488281 0.15625,-0.78125 0,-0.320313 -0.058594,-0.59375 -0.171875,-0.8125 -0.117187,-0.226563 -0.277344,-0.394531 -0.484375,-0.5 C 3.566406,-6.894531 3.332031,-6.953125 3.0625,-6.953125 c -0.449219,0 -0.792969,0.125 -1.03125,0.375 -0.242187,0.242187 -0.359375,0.585937 -0.359375,1.03125 z M 1.625,-2.015625 c 0,0.230469 0.023438,0.449219 0.078125,0.65625 0.050781,0.199219 0.132813,0.371094 0.25,0.515625 0.113281,0.148437 0.257813,0.261719 0.4375,0.34375 0.1875,0.085937 0.410156,0.125 0.671875,0.125 0.289063,0 0.539063,-0.054688 0.75,-0.171875 0.21875,-0.125 0.378906,-0.300781 0.484375,-0.53125 0.113281,-0.238281 0.171875,-0.519531 0.171875,-0.84375 0,-0.34375 -0.0625,-0.640625 -0.1875,-0.890625 C 4.164063,-3.0625 4,-3.25 3.78125,-3.375 3.570313,-3.507813 3.328125,-3.578125 3.046875,-3.578125 c -0.273437,0 -0.496094,0.042969 -0.671875,0.125 -0.179687,0.085937 -0.324219,0.199219 -0.4375,0.34375 C 1.820313,-2.972656 1.738281,-2.8125 1.6875,-2.625 1.644531,-2.4375 1.625,-2.234375 1.625,-2.015625 Z m 0,0"
           id="path4651" />
      </g>
      <g
         id="glyph-3-5">
        <path
           d="M 1.671875,-0.203125 V -0.46875 c 0.5,0 0.929688,-0.109375 1.296875,-0.328125 0.375,-0.226563 0.671875,-0.554688 0.890625,-0.984375 C 4.085938,-2.21875 4.238281,-2.789063 4.3125,-3.5 L 4.265625,-3.515625 c -0.304687,0.210937 -0.601562,0.367187 -0.890625,0.46875 -0.292969,0.105469 -0.609375,0.15625 -0.953125,0.15625 -0.40625,0 -0.75,-0.085938 -1.03125,-0.265625 -0.28125,-0.175781 -0.496094,-0.425781 -0.640625,-0.75 -0.148437,-0.320313 -0.21875,-0.695313 -0.21875,-1.125 0,-0.320313 0.050781,-0.625 0.15625,-0.90625 0.113281,-0.289063 0.273438,-0.546875 0.484375,-0.765625 0.207031,-0.21875 0.46875,-0.390625 0.78125,-0.515625 0.320313,-0.125 0.695313,-0.1875 1.125,-0.1875 0.75,0 1.316406,0.261719 1.703125,0.78125 0.394531,0.523437 0.59375,1.265625 0.59375,2.234375 0,0.886719 -0.148437,1.65625 -0.4375,2.3125 -0.28125,0.65625 -0.6875,1.167969 -1.21875,1.53125 -0.523437,0.355469 -1.125,0.5625 -1.8125,0.625 z m 1.125,-3.25 c 0.132813,0 0.265625,-0.00781 0.390625,-0.03125 0.125,-0.03125 0.242188,-0.066406 0.359375,-0.109375 0.113281,-0.039063 0.226563,-0.097656 0.34375,-0.171875 0.113281,-0.070313 0.210938,-0.144531 0.296875,-0.21875 0.039063,-0.03125 0.070313,-0.066406 0.09375,-0.109375 0.019531,-0.050781 0.035156,-0.113281 0.046875,-0.1875 0.019531,-0.070313 0.03125,-0.191406 0.03125,-0.359375 0,-0.488281 -0.054687,-0.90625 -0.15625,-1.25 C 4.109375,-6.242188 3.957031,-6.507813 3.75,-6.6875 3.550781,-6.863281 3.304688,-6.953125 3.015625,-6.953125 c -0.273437,0 -0.5,0.046875 -0.6875,0.140625 -0.1875,0.09375 -0.339844,0.226562 -0.453125,0.390625 -0.117187,0.15625 -0.199219,0.34375 -0.25,0.5625 -0.054687,0.21875 -0.078125,0.460937 -0.078125,0.71875 0,0.53125 0.109375,0.949219 0.328125,1.25 0.21875,0.292969 0.523438,0.4375 0.921875,0.4375 z m 0,0"
           id="path4654" />
      </g>
      <g
         id="glyph-3-6">
        <path
           d="m 3.734375,-1.40625 c 0,0.210937 0.00781,0.371094 0.03125,0.484375 0.019531,0.105469 0.054688,0.1875 0.109375,0.25 0.0625,0.0625 0.148438,0.117187 0.265625,0.15625 0.113281,0.03125 0.253906,0.058594 0.421875,0.078125 0.164063,0.023437 0.382813,0.039062 0.65625,0.046875 V 0 H 1.265625 V -0.390625 C 1.660156,-0.410156 1.941406,-0.4375 2.109375,-0.46875 2.273438,-0.5 2.40625,-0.539063 2.5,-0.59375 2.59375,-0.65625 2.65625,-0.742188 2.6875,-0.859375 2.726563,-0.972656 2.75,-1.15625 2.75,-1.40625 V -5.75 C 2.75,-5.894531 2.722656,-6 2.671875,-6.0625 2.628906,-6.125 2.5625,-6.15625 2.46875,-6.15625 c -0.117187,0 -0.28125,0.058594 -0.5,0.171875 C 1.757813,-5.867188 1.5,-5.707031 1.1875,-5.5 l -0.234375,-0.40625 2.515625,-1.5 h 0.296875 c -0.023437,0.34375 -0.03125,0.820312 -0.03125,1.421875 z m 0,0"
           id="path4657" />
      </g>
      <g
         id="glyph-3-7">
        <path
           d="m 4.890625,-7.109375 v 0.265625 c -0.554687,0 -1.042969,0.121094 -1.46875,0.359375 -0.429687,0.230469 -0.78125,0.574219 -1.0625,1.03125 -0.28125,0.460937 -0.480469,1 -0.59375,1.625 l 0.0625,0.03125 c 0.300781,-0.21875 0.59375,-0.375 0.875,-0.46875 0.289063,-0.101563 0.609375,-0.15625 0.953125,-0.15625 0.40625,0 0.75,0.089844 1.03125,0.265625 0.28125,0.179687 0.492188,0.429687 0.640625,0.75 0.144531,0.3125 0.21875,0.683594 0.21875,1.109375 0,0.46875 -0.089844,0.882812 -0.265625,1.234375 -0.179687,0.355469 -0.453125,0.636719 -0.828125,0.84375 -0.375,0.1992187 -0.839844,0.296875 -1.390625,0.296875 -0.78125,0 -1.371094,-0.238281 -1.765625,-0.71875 -0.398437,-0.488281 -0.59375,-1.207031 -0.59375,-2.15625 0,-0.632813 0.097656,-1.226563 0.296875,-1.78125 C 1.195313,-5.128906 1.476563,-5.613281 1.84375,-6.03125 2.21875,-6.445313 2.644531,-6.769531 3.125,-7 3.613281,-7.238281 4.128906,-7.375 4.671875,-7.40625 Z m -1.609375,3.25 c -0.167969,0 -0.335937,0.023437 -0.5,0.0625 -0.167969,0.03125 -0.324219,0.089844 -0.46875,0.171875 -0.136719,0.074219 -0.273437,0.167969 -0.40625,0.28125 -0.042969,0.042969 -0.074219,0.085937 -0.09375,0.125 -0.042969,0.0625 -0.070312,0.148437 -0.078125,0.25 -0.011719,0.09375 -0.015625,0.261719 -0.015625,0.5 0,0.6875 0.113281,1.210937 0.34375,1.5625 0.226563,0.355469 0.578125,0.53125 1.046875,0.53125 0.257813,0 0.484375,-0.046875 0.671875,-0.140625 0.1875,-0.09375 0.332031,-0.21875 0.4375,-0.375 C 4.332031,-1.054688 4.410156,-1.25 4.453125,-1.46875 4.503906,-1.6875 4.53125,-1.925781 4.53125,-2.1875 c 0,-0.53125 -0.109375,-0.941406 -0.328125,-1.234375 -0.210937,-0.289063 -0.515625,-0.4375 -0.921875,-0.4375 z m 0,0"
           id="path4660" />
      </g>
      <g
         id="glyph-3-8">
        <path
           d="m 3.765625,-0.859375 c 0.175781,0 0.316406,-0.007813 0.421875,-0.03125 C 4.289063,-0.910156 4.375,-0.945313 4.4375,-1 c 0.070313,-0.050781 0.125,-0.113281 0.15625,-0.1875 0.039063,-0.082031 0.085938,-0.207031 0.140625,-0.375 h 0.46875 L 5.109375,0 H 0.6875 V -0.25 C 0.84375,-0.632813 1.050781,-1.019531 1.3125,-1.40625 1.570313,-1.800781 1.941406,-2.265625 2.421875,-2.796875 2.835938,-3.253906 3.132813,-3.601563 3.3125,-3.84375 3.519531,-4.09375 3.671875,-4.3125 3.765625,-4.5 c 0.101563,-0.195313 0.175781,-0.375 0.21875,-0.53125 0.039063,-0.164063 0.0625,-0.335938 0.0625,-0.515625 C 4.046875,-5.804688 4,-6.039063 3.90625,-6.25 3.820313,-6.457031 3.691406,-6.617188 3.515625,-6.734375 3.335938,-6.847656 3.117188,-6.90625 2.859375,-6.90625 2.179688,-6.90625 1.726563,-6.535156 1.5,-5.796875 H 0.859375 v -1.03125 C 1.285156,-7.035156 1.6875,-7.179688 2.0625,-7.265625 2.445313,-7.359375 2.785156,-7.40625 3.078125,-7.40625 c 0.664063,0 1.164063,0.148437 1.5,0.4375 0.34375,0.292969 0.515625,0.714844 0.515625,1.265625 0,0.1875 -0.023437,0.367187 -0.0625,0.53125 -0.03125,0.15625 -0.089844,0.3125 -0.171875,0.46875 -0.074219,0.15625 -0.179687,0.324219 -0.3125,0.5 C 4.410156,-4.023438 4.257813,-3.84375 4.09375,-3.65625 3.925781,-3.476563 3.640625,-3.171875 3.234375,-2.734375 2.554688,-2.015625 2.0625,-1.390625 1.75,-0.859375 Z m 0,0"
           id="path4663" />
      </g>
      <g
         id="glyph-3-9">
        <path
           d="M 5.5,-7.0625 2.375,0.03125 H 1.609375 v -0.25 L 4.5,-6.34375 V -6.421875 H 2.140625 C 1.992188,-6.421875 1.875,-6.40625 1.78125,-6.375 1.695313,-6.351563 1.625,-6.316406 1.5625,-6.265625 1.5,-6.210938 1.445313,-6.144531 1.40625,-6.0625 1.375,-5.988281 1.320313,-5.828125 1.25,-5.578125 H 0.796875 l 0.109375,-1.75 H 5.5 Z m 0,0"
           id="path4666" />
      </g>
      <g
         id="glyph-3-10">
        <path
           d="m 0.859375,-5.796875 v -1.03125 c 0.40625,-0.195313 0.789063,-0.34375 1.15625,-0.4375 0.363281,-0.09375 0.710938,-0.140625 1.046875,-0.140625 0.40625,0 0.757813,0.0625 1.0625,0.1875 0.300781,0.125 0.53125,0.308594 0.6875,0.546875 0.164063,0.230469 0.25,0.507812 0.25,0.828125 0,0.304687 -0.0625,0.574219 -0.1875,0.8125 -0.117187,0.230469 -0.289062,0.433594 -0.515625,0.609375 -0.21875,0.167969 -0.5,0.328125 -0.84375,0.484375 v 0.046875 c 0.21875,0.042969 0.425781,0.109375 0.625,0.203125 0.207031,0.09375 0.390625,0.21875 0.546875,0.375 0.15625,0.148437 0.28125,0.324219 0.375,0.53125 0.09375,0.210937 0.140625,0.449219 0.140625,0.71875 0,0.417969 -0.09375,0.789062 -0.28125,1.109375 C 4.742188,-0.628906 4.46875,-0.375 4.09375,-0.1875 3.726563,-0.0078125 3.28125,0.078125 2.75,0.078125 c -0.3125,0 -0.648437,-0.03125 -1,-0.09375 C 1.394531,-0.0859375 1.066406,-0.179688 0.765625,-0.296875 V -1.4375 h 0.65625 c 0.125,0.375 0.285156,0.648437 0.484375,0.8125 0.207031,0.167969 0.488281,0.25 0.84375,0.25 0.46875,0 0.816406,-0.125 1.046875,-0.375 C 4.035156,-1 4.15625,-1.375 4.15625,-1.875 4.15625,-2.394531 4,-2.789063 3.6875,-3.0625 3.375,-3.34375 2.914063,-3.484375 2.3125,-3.484375 H 1.828125 v -0.46875 c 0.476563,-0.03125 0.882813,-0.125 1.21875,-0.28125 C 3.378906,-4.390625 3.625,-4.59375 3.78125,-4.84375 c 0.15625,-0.25 0.234375,-0.523438 0.234375,-0.828125 0,-0.394531 -0.105469,-0.695313 -0.3125,-0.90625 C 3.492188,-6.796875 3.1875,-6.90625 2.78125,-6.90625 2.445313,-6.90625 2.171875,-6.8125 1.953125,-6.625 1.742188,-6.445313 1.59375,-6.171875 1.5,-5.796875 Z m 0,0"
           id="path4669" />
      </g>
      <g
         id="glyph-3-11">
        <path
           d="m 2.765625,-0.265625 c 0.21875,-0.050781 0.363281,-0.113281 0.4375,-0.1875 C 3.285156,-0.523438 3.335938,-0.625 3.359375,-0.75 c 0.019531,-0.125 0.03125,-0.320313 0.03125,-0.59375 v -0.875 H 0.40625 V -2.625 L 3.546875,-7.359375 H 4.3125 v 4.625 h 0.125 c 0.195313,0 0.34375,-0.015625 0.4375,-0.046875 0.09375,-0.03125 0.164063,-0.082031 0.21875,-0.15625 0.0625,-0.082031 0.117188,-0.210938 0.171875,-0.390625 h 0.40625 l -0.0625,1.109375 H 4.3125 v 0.875 c 0,0.242187 0.00391,0.417969 0.015625,0.53125 0.019531,0.105469 0.050781,0.195312 0.09375,0.265625 0.039063,0.0625 0.097656,0.117187 0.171875,0.15625 0.070313,0.042969 0.1875,0.085937 0.34375,0.125 V 0 H 2.765625 Z m -1.46875,-2.46875 h 2.09375 v -1.34375 c 0,-0.332031 0.00391,-0.707031 0.015625,-1.125 0.00781,-0.414063 0.023438,-0.726563 0.046875,-0.9375 h -0.0625 L 1.296875,-2.8125 Z m 0,0"
           id="path4672" />
      </g>
      <g
         id="glyph-3-12">
        <path
           d="M 2.984375,0.078125 C 2.210938,0.078125 1.632813,-0.222656 1.25,-0.828125 0.875,-1.429688 0.6875,-2.351563 0.6875,-3.59375 c 0,-0.65625 0.054688,-1.222656 0.171875,-1.703125 0.125,-0.476563 0.289063,-0.875 0.5,-1.1875 0.207031,-0.3125 0.457031,-0.539063 0.75,-0.6875 0.289063,-0.15625 0.609375,-0.234375 0.953125,-0.234375 0.789063,0 1.375,0.304687 1.75,0.90625 0.382813,0.605469 0.578125,1.515625 0.578125,2.734375 0,1.273437 -0.210937,2.230469 -0.625,2.875 -0.40625,0.648437 -1,0.96875 -1.78125,0.96875 z M 1.734375,-3.75 c 0,1.167969 0.109375,2.023437 0.328125,2.5625 0.21875,0.542969 0.550781,0.8125 1,0.8125 0.4375,0 0.757813,-0.253906 0.96875,-0.765625 0.207031,-0.507813 0.3125,-1.304688 0.3125,-2.390625 0,-0.8125 -0.058594,-1.472656 -0.171875,-1.984375 -0.105469,-0.507813 -0.25,-0.875 -0.4375,-1.09375 -0.1875,-0.226563 -0.417969,-0.34375 -0.6875,-0.34375 -0.25,0 -0.460937,0.074219 -0.625,0.21875 -0.167969,0.148437 -0.304687,0.359375 -0.40625,0.640625 -0.105469,0.273437 -0.179687,0.605469 -0.21875,1 -0.042969,0.398437 -0.0625,0.84375 -0.0625,1.34375 z m 0,0"
           id="path4675" />
      </g>
    </g>
    <clipPath
       id="clip-0">
      <path
         clip-rule="nonzero"
         d="M 0,0 H 703.01953 V 192.78125 H 0 Z m 0,0"
         id="path4680" />
    </clipPath>
    <clipPath
       id="clip-1">
      <path
         clip-rule="nonzero"
         d="M 98.101563,85 H 105 v 8 h -6.898437 z m 0,0"
         id="path4683" />
    </clipPath>
    <clipPath
       id="clip-2">
      <path
         clip-rule="nonzero"
         d="M 127.85938,85 H 135 v 8 h -7.14062 z m 0,0"
         id="path4686" />
    </clipPath>
    <clipPath
       id="clip-3">
      <path
         clip-rule="nonzero"
         d="M 157.62109,85 H 164 v 8 h -6.37891 z m 0,0"
         id="path4689" />
    </clipPath>
    <clipPath
       id="clip-4">
      <path
         clip-rule="nonzero"
         d="M 187.37891,85 H 194 v 8 h -6.62109 z m 0,0"
         id="path4692" />
    </clipPath>
    <clipPath
       id="clip-5">
      <path
         clip-rule="nonzero"
         d="M 217.14062,85 H 224 v 8 h -6.85938 z m 0,0"
         id="path4695" />
    </clipPath>
    <clipPath
       id="clip-6">
      <path
         clip-rule="nonzero"
         d="M 246.89844,85 H 254 v 8 h -7.10156 z m 0,0"
         id="path4698" />
    </clipPath>
    <clipPath
       id="clip-7">
      <path
         clip-rule="nonzero"
         d="M 276.66016,85 H 283 v 8 h -6.33984 z m 0,0"
         id="path4701" />
    </clipPath>
    <clipPath
       id="clip-8">
      <path
         clip-rule="nonzero"
         d="M 306.42187,85 H 313 v 8 h -6.57813 z m 0,0"
         id="path4704" />
    </clipPath>
    <clipPath
       id="clip-9">
      <path
         clip-rule="nonzero"
         d="M 574.32031,85 H 581 v 8 h -6.67969 z m 0,0"
         id="path4707" />
    </clipPath>
    <clipPath
       id="clip-10">
      <path
         clip-rule="nonzero"
         d="M 604.07812,85 H 611 v 8 h -6.92188 z m 0,0"
         id="path4710" />
    </clipPath>
    <clipPath
       id="clip-11">
      <path
         clip-rule="nonzero"
         d="M 633.83984,85 H 641 v 8 h -7.16016 z m 0,0"
         id="path4713" />
    </clipPath>
  </defs>
  <path
     fill-rule="evenodd"
     fill="#d9d9d9"
     fill-opacity="1"
     d="M 0,115.98047 H 694.67968 V 0 H 0 Z m 0,0"
     id="path4722" />
  <path
     fill-rule="evenodd"
     fill="#f0917b"
     fill-opacity="1"
     d="M 4.851562,79.695312 H 34.613281 V 50.496093 H 4.851562 Z m 0,0"
     id="path4724" />
  <path
     fill-rule="evenodd"
     fill="#f0917b"
     fill-opacity="1"
     d="M 34.613281,79.695312 H 64.378906 V 50.496093 H 34.613281 Z m 0,0"
     id="path4726" />
  <path
     fill-rule="evenodd"
     fill="#f0917b"
     fill-opacity="1"
     d="M 64.378906,79.695312 H 94.140625 V 50.496093 H 64.378906 Z m 0,0"
     id="path4728" />
  <path
     fill-rule="evenodd"
     fill="#92d050"
     fill-opacity="1"
     d="M 94.140625,79.695312 H 123.90625 V 50.496093 H 94.140625 Z m 0,0"
     id="path4730" />
  <path
     fill-rule="evenodd"
     fill="#00b0f0"
     fill-opacity="1"
     d="m 123.91015,79.695312 h 29.76172 V 50.496093 h -29.76172 z m 0,0"
     id="path4732" />
  <path
     fill-rule="evenodd"
     fill="#00b0f0"
     fill-opacity="1"
     d="m 153.66797,79.695312 h 29.76562 V 50.496093 h -29.76562 z m 0,0"
     id="path4734" />
  <path
     fill-rule="evenodd"
     fill="#00b0f0"
     fill-opacity="1"
     d="M 183.42968,79.695312 H 213.1914 V 50.496093 h -29.76172 z m 0,0"
     id="path4736" />
  <path
     fill-rule="evenodd"
     fill="#00b0f0"
     fill-opacity="1"
     d="m 213.19922,79.695312 h 29.76562 V 50.496093 h -29.76562 z m 0,0"
     id="path4738" />
  <path
     fill-rule="evenodd"
     fill="#00b0f0"
     fill-opacity="1"
     d="m 242.96093,79.695312 h 29.76172 V 50.496093 h -29.76172 z m 0,0"
     id="path4740" />
  <path
     fill-rule="evenodd"
     fill="#00b0f0"
     fill-opacity="1"
     d="m 272.73047,79.695312 h 29.76171 V 50.496093 h -29.76171 z m 0,0"
     id="path4742" />
  <path
     fill-rule="evenodd"
     fill="#00b0f0"
     fill-opacity="1"
     d="M 302.48828,79.695312 H 332.2539 V 50.496093 h -29.76562 z m 0,0"
     id="path4744" />
  <path
     fill-rule="evenodd"
     fill="#7f7f7f"
     fill-opacity="1"
     d="m 332.25,79.695312 h 29.76172 V 50.496093 H 332.25 Z m 0,0"
     id="path4746" />
  <path
     fill-rule="evenodd"
     fill="#f0917b"
     fill-opacity="1"
     d="m 362.01953,79.695312 h 29.76172 V 50.496093 h -29.76172 z m 0,0"
     id="path4748" />
  <path
     fill-rule="evenodd"
     fill="#f0917b"
     fill-opacity="1"
     d="m 391.77734,79.695312 h 29.76563 V 50.496093 h -29.76563 z m 0,0"
     id="path4750" />
  <path
     fill-rule="evenodd"
     fill="#f0917b"
     fill-opacity="1"
     d="m 421.53906,79.695312 h 29.76562 V 50.496093 h -29.76562 z m 0,0"
     id="path4752" />
  <path
     fill-rule="evenodd"
     fill="#f0917b"
     fill-opacity="1"
     d="m 451.30859,79.695312 h 29.76563 V 50.496093 h -29.76563 z m 0,0"
     id="path4754" />
  <path
     fill-rule="evenodd"
     fill="#f0917b"
     fill-opacity="1"
     d="m 481.07031,79.695312 h 29.76172 V 50.496093 h -29.76172 z m 0,0"
     id="path4756" />
  <path
     fill-rule="evenodd"
     fill="#f0917b"
     fill-opacity="1"
     d="m 510.83984,79.695312 h 29.76172 V 50.496093 h -29.76172 z m 0,0"
     id="path4758" />
  <path
     fill-rule="evenodd"
     fill="#f0917b"
     fill-opacity="1"
     d="m 540.59765,79.695312 h 29.76563 V 50.496093 h -29.76563 z m 0,0"
     id="path4760" />
  <path
     fill-rule="evenodd"
     fill="#92d050"
     fill-opacity="1"
     d="M 570.35937,79.695312 H 600.125 V 50.496093 h -29.76563 z m 0,0"
     id="path4762" />
  <path
     fill-rule="evenodd"
     fill="#00b0f0"
     fill-opacity="1"
     d="m 600.1289,79.695312 h 29.76563 V 50.496093 H 600.1289 Z m 0,0"
     id="path4764" />
  <path
     fill-rule="evenodd"
     fill="#00b0f0"
     fill-opacity="1"
     d="m 629.89062,79.695312 h 29.76172 V 50.496093 h -29.76172 z m 0,0"
     id="path4766" />
  <path
     fill-rule="evenodd"
     fill="#00b0f0"
     fill-opacity="1"
     d="m 659.64843,79.695312 h 29.76563 V 50.496093 h -29.76563 z m 0,0"
     id="path4768" />
  <path
     fill="none"
     stroke-width="1"
     stroke-linecap="butt"
     stroke-linejoin="round"
     stroke="#000000"
     stroke-opacity="1"
     stroke-miterlimit="10"
     d="m 34.613281,49.992182 v 30.20313"
     id="path4770" />
  <path
     fill="none"
     stroke-width="1"
     stroke-linecap="butt"
     stroke-linejoin="round"
     stroke="#000000"
     stroke-opacity="1"
     stroke-miterlimit="10"
     d="m 64.378906,49.992182 v 30.20313"
     id="path4772" />
  <path
     fill="none"
     stroke-width="1"
     stroke-linecap="butt"
     stroke-linejoin="round"
     stroke="#000000"
     stroke-opacity="1"
     stroke-miterlimit="10"
     d="m 94.140625,49.992182 v 30.20313"
     id="path4774" />
  <path
     fill="none"
     stroke-width="1"
     stroke-linecap="butt"
     stroke-linejoin="round"
     stroke="#000000"
     stroke-opacity="1"
     stroke-miterlimit="10"
     d="m 123.91015,49.992182 v 30.20313"
     id="path4776" />
  <path
     fill="none"
     stroke-width="1"
     stroke-linecap="butt"
     stroke-linejoin="round"
     stroke="#000000"
     stroke-opacity="1"
     stroke-miterlimit="10"
     d="m 153.66797,49.992182 v 30.20313"
     id="path4778" />
  <path
     fill="none"
     stroke-width="1"
     stroke-linecap="butt"
     stroke-linejoin="round"
     stroke="#000000"
     stroke-opacity="1"
     stroke-miterlimit="10"
     d="m 183.42968,49.992182 v 30.20313"
     id="path4780" />
  <path
     fill="none"
     stroke-width="1"
     stroke-linecap="butt"
     stroke-linejoin="round"
     stroke="#000000"
     stroke-opacity="1"
     stroke-miterlimit="10"
     d="m 213.19922,49.992182 v 30.20313"
     id="path4782" />
  <path
     fill="none"
     stroke-width="1"
     stroke-linecap="butt"
     stroke-linejoin="round"
     stroke="#000000"
     stroke-opacity="1"
     stroke-miterlimit="10"
     d="m 242.96093,49.992182 v 30.20313"
     id="path4784" />
  <path
     fill="none"
     stroke-width="1"
     stroke-linecap="butt"
     stroke-linejoin="round"
     stroke="#000000"
     stroke-opacity="1"
     stroke-miterlimit="10"
     d="m 272.73047,49.992182 v 30.20313"
     id="path4786" />
  <path
     fill="none"
     stroke-width="1"
     stroke-linecap="butt"
     stroke-linejoin="round"
     stroke="#000000"
     stroke-opacity="1"
     stroke-miterlimit="10"
     d="m 302.48828,49.992182 v 30.20313"
     id="path4788" />
  <path
     fill="none"
     stroke-width="1"
     stroke-linecap="butt"
     stroke-linejoin="round"
     stroke="#000000"
     stroke-opacity="1"
     stroke-miterlimit="10"
     d="m 332.25,49.992182 v 30.20313"
     id="path4790" />
  <path
     fill="none"
     stroke-width="1"
     stroke-linecap="butt"
     stroke-linejoin="round"
     stroke="#000000"
     stroke-opacity="1"
     stroke-miterlimit="10"
     d="m 362.01953,49.992182 v 30.20313"
     id="path4792" />
  <path
     fill="none"
     stroke-width="1"
     stroke-linecap="butt"
     stroke-linejoin="round"
     stroke="#000000"
     stroke-opacity="1"
     stroke-miterlimit="10"
     d="m 391.77734,49.992182 v 30.20313"
     id="path4794" />
  <path
     fill="none"
     stroke-width="1"
     stroke-linecap="butt"
     stroke-linejoin="round"
     stroke="#000000"
     stroke-opacity="1"
     stroke-miterlimit="10"
     d="m 421.53906,49.992182 v 30.20313"
     id="path4796" />
  <path
     fill="none"
     stroke-width="1"
     stroke-linecap="butt"
     stroke-linejoin="round"
     stroke="#000000"
     stroke-opacity="1"
     stroke-miterlimit="10"
     d="m 451.30859,49.992182 v 30.20313"
     id="path4798" />
  <path
     fill="none"
     stroke-width="1"
     stroke-linecap="butt"
     stroke-linejoin="round"
     stroke="#000000"
     stroke-opacity="1"
     stroke-miterlimit="10"
     d="m 481.07031,49.992182 v 30.20313"
     id="path4800" />
  <path
     fill="none"
     stroke-width="1"
     stroke-linecap="butt"
     stroke-linejoin="round"
     stroke="#000000"
     stroke-opacity="1"
     stroke-miterlimit="10"
     d="m 510.83984,49.992182 v 30.20313"
     id="path4802" />
  <path
     fill="none"
     stroke-width="1"
     stroke-linecap="butt"
     stroke-linejoin="round"
     stroke="#000000"
     stroke-opacity="1"
     stroke-miterlimit="10"
     d="m 540.59765,49.992182 v 30.20313"
     id="path4804" />
  <path
     fill="none"
     stroke-width="1"
     stroke-linecap="butt"
     stroke-linejoin="round"
     stroke="#000000"
     stroke-opacity="1"
     stroke-miterlimit="10"
     d="m 570.35937,49.992182 v 30.20313"
     id="path4806" />
  <path
     fill="none"
     stroke-width="1"
     stroke-linecap="butt"
     stroke-linejoin="round"
     stroke="#000000"
     stroke-opacity="1"
     stroke-miterlimit="10"
     d="m 600.1289,49.992182 v 30.20313"
     id="path4808" />
  <path
     fill="none"
     stroke-width="1"
     stroke-linecap="butt"
     stroke-linejoin="round"
     stroke="#000000"
     stroke-opacity="1"
     stroke-miterlimit="10"
     d="m 629.89062,49.992182 v 30.20313"
     id="path4810" />
  <path
     fill="none"
     stroke-width="1"
     stroke-linecap="butt"
     stroke-linejoin="round"
     stroke="#000000"
     stroke-opacity="1"
     stroke-miterlimit="10"
     d="m 659.64843,49.992182 v 30.20313"
     id="path4812" />
  <path
     fill="none"
     stroke-width="1"
     stroke-linecap="butt"
     stroke-linejoin="round"
     stroke="#000000"
     stroke-opacity="1"
     stroke-miterlimit="10"
     d="M 4.351562,79.695312 H 689.91797"
     id="path4814" />
  <path
     fill="none"
     stroke-width="1"
     stroke-linecap="butt"
     stroke-linejoin="round"
     stroke="#000000"
     stroke-opacity="1"
     stroke-miterlimit="10"
     d="m 4.851562,49.992182 v 30.20313"
     id="path4816" />
  <path
     fill="none"
     stroke-width="1"
     stroke-linecap="butt"
     stroke-linejoin="round"
     stroke="#000000"
     stroke-opacity="1"
     stroke-miterlimit="10"
     d="m 689.41797,49.992182 v 30.20313"
     id="path4818" />
  <path
     fill="none"
     stroke-width="1"
     stroke-linecap="butt"
     stroke-linejoin="round"
     stroke="#000000"
     stroke-opacity="1"
     stroke-miterlimit="10"
     d="M 4.351562,50.492182 H 689.91797"
     id="path4820" />
  <g
     fill="#000000"
     fill-opacity="1"
     id="g4824"
     transform="translate(-3.960938,-24.179688)">
    <use
       xlink:href="#glyph-0-1"
       x="17.940001"
       y="93.260002"
       id="use4822" />
  </g>
  <g
     fill="#000000"
     fill-opacity="1"
     id="g4828"
     transform="translate(-3.960938,-24.179688)">
    <use
       xlink:href="#glyph-1-1"
       x="41.060001"
       y="92.239998"
       id="use4826" />
  </g>
  <g
     fill="#000000"
     fill-opacity="1"
     id="g4832"
     transform="translate(-3.960938,-24.179688)">
    <use
       xlink:href="#glyph-2-1"
       x="47.119999"
       y="94.279999"
       id="use4830" />
  </g>
  <g
     fill="#000000"
     fill-opacity="1"
     id="g4836"
     transform="translate(-3.960938,-24.179688)">
    <use
       xlink:href="#glyph-2-2"
       x="51.380001"
       y="94.279999"
       id="use4834" />
  </g>
  <g
     fill="#000000"
     fill-opacity="1"
     id="g4842"
     transform="translate(-3.960938,-24.179688)">
    <use
       xlink:href="#glyph-2-3"
       x="54.98"
       y="94.279999"
       id="use4838" />
    <use
       xlink:href="#glyph-2-1"
       x="59.239979"
       y="94.279999"
       id="use4840" />
  </g>
  <g
     fill="#000000"
     fill-opacity="1"
     id="g4846"
     transform="translate(-3.960938,-24.179688)">
    <use
       xlink:href="#glyph-1-1"
       x="70.839996"
       y="92.239998"
       id="use4844" />
  </g>
  <g
     fill="#000000"
     fill-opacity="1"
     id="g4850"
     transform="translate(-3.960938,-24.179688)">
    <use
       xlink:href="#glyph-2-4"
       x="76.900002"
       y="94.279999"
       id="use4848" />
  </g>
  <g
     fill="#000000"
     fill-opacity="1"
     id="g4854"
     transform="translate(-3.960938,-24.179688)">
    <use
       xlink:href="#glyph-2-2"
       x="81.160004"
       y="94.279999"
       id="use4852" />
  </g>
  <g
     fill="#000000"
     fill-opacity="1"
     id="g4860"
     transform="translate(-3.960938,-24.179688)">
    <use
       xlink:href="#glyph-2-3"
       x="84.760002"
       y="94.279999"
       id="use4856" />
    <use
       xlink:href="#glyph-2-1"
       x="89.019981"
       y="94.279999"
       id="use4858" />
  </g>
  <g
     clip-path="url(#clip-1)"
     id="g4866"
     transform="translate(-3.960938,-24.179688)">
    <g
       fill="#000000"
       fill-opacity="1"
       id="g4864">
      <use
         xlink:href="#glyph-1-1"
         x="97.959999"
         y="92.239998"
         id="use4862" />
    </g>
  </g>
  <g
     fill="#000000"
     fill-opacity="1"
     id="g4870"
     transform="translate(-3.960938,-24.179688)">
    <use
       xlink:href="#glyph-2-5"
       x="104.02"
       y="94.279999"
       id="use4868" />
  </g>
  <g
     fill="#000000"
     fill-opacity="1"
     id="g4874"
     transform="translate(-3.960938,-24.179688)">
    <use
       xlink:href="#glyph-2-6"
       x="109.3"
       y="94.279999"
       id="use4872" />
  </g>
  <g
     fill="#000000"
     fill-opacity="1"
     id="g4878"
     transform="translate(-3.960938,-24.179688)">
    <use
       xlink:href="#glyph-2-2"
       x="113.56"
       y="94.279999"
       id="use4876" />
  </g>
  <g
     fill="#000000"
     fill-opacity="1"
     id="g4884"
     transform="translate(-3.960938,-24.179688)">
    <use
       xlink:href="#glyph-2-3"
       x="117.16"
       y="94.279999"
       id="use4880" />
    <use
       xlink:href="#glyph-2-1"
       x="121.41998"
       y="94.279999"
       id="use4882" />
  </g>
  <g
     clip-path="url(#clip-2)"
     id="g4890"
     transform="translate(-3.960938,-24.179688)">
    <g
       fill="#000000"
       fill-opacity="1"
       id="g4888">
      <use
         xlink:href="#glyph-1-1"
         x="127.72"
         y="92.239998"
         id="use4886" />
    </g>
  </g>
  <g
     fill="#000000"
     fill-opacity="1"
     id="g4894"
     transform="translate(-3.960938,-24.179688)">
    <use
       xlink:href="#glyph-2-5"
       x="133.78"
       y="94.279999"
       id="use4892" />
  </g>
  <g
     fill="#000000"
     fill-opacity="1"
     id="g4898"
     transform="translate(-3.960938,-24.179688)">
    <use
       xlink:href="#glyph-2-4"
       x="139.06"
       y="94.279999"
       id="use4896" />
  </g>
  <g
     fill="#000000"
     fill-opacity="1"
     id="g4902"
     transform="translate(-3.960938,-24.179688)">
    <use
       xlink:href="#glyph-2-2"
       x="143.32001"
       y="94.279999"
       id="use4900" />
  </g>
  <g
     fill="#000000"
     fill-opacity="1"
     id="g4908"
     transform="translate(-3.960938,-24.179688)">
    <use
       xlink:href="#glyph-2-3"
       x="146.92"
       y="94.279999"
       id="use4904" />
    <use
       xlink:href="#glyph-2-1"
       x="151.17998"
       y="94.279999"
       id="use4906" />
  </g>
  <g
     clip-path="url(#clip-3)"
     id="g4914"
     transform="translate(-3.960938,-24.179688)">
    <g
       fill="#000000"
       fill-opacity="1"
       id="g4912">
      <use
         xlink:href="#glyph-1-1"
         x="157.48"
         y="92.239998"
         id="use4910" />
    </g>
  </g>
  <g
     fill="#000000"
     fill-opacity="1"
     id="g4918"
     transform="translate(-3.960938,-24.179688)">
    <use
       xlink:href="#glyph-2-5"
       x="163.53999"
       y="94.279999"
       id="use4916" />
  </g>
  <g
     fill="#000000"
     fill-opacity="1"
     id="g4922"
     transform="translate(-3.960938,-24.179688)">
    <use
       xlink:href="#glyph-2-1"
       x="168.82001"
       y="94.279999"
       id="use4920" />
  </g>
  <g
     fill="#000000"
     fill-opacity="1"
     id="g4926"
     transform="translate(-3.960938,-24.179688)">
    <use
       xlink:href="#glyph-2-2"
       x="173.08"
       y="94.279999"
       id="use4924" />
  </g>
  <g
     fill="#000000"
     fill-opacity="1"
     id="g4932"
     transform="translate(-3.960938,-24.179688)">
    <use
       xlink:href="#glyph-2-3"
       x="176.67999"
       y="94.279999"
       id="use4928" />
    <use
       xlink:href="#glyph-2-1"
       x="180.93999"
       y="94.279999"
       id="use4930" />
  </g>
  <g
     clip-path="url(#clip-4)"
     id="g4938"
     transform="translate(-3.960938,-24.179688)">
    <g
       fill="#000000"
       fill-opacity="1"
       id="g4936">
      <use
         xlink:href="#glyph-1-1"
         x="187.25999"
         y="92.239998"
         id="use4934" />
    </g>
  </g>
  <g
     fill="#000000"
     fill-opacity="1"
     id="g4942"
     transform="translate(-3.960938,-24.179688)">
    <use
       xlink:href="#glyph-2-5"
       x="193.32001"
       y="94.279999"
       id="use4940" />
  </g>
  <g
     fill="#000000"
     fill-opacity="1"
     id="g4946"
     transform="translate(-3.960938,-24.179688)">
    <use
       xlink:href="#glyph-2-7"
       x="198.60001"
       y="94.279999"
       id="use4944" />
  </g>
  <g
     fill="#000000"
     fill-opacity="1"
     id="g4950"
     transform="translate(-3.960938,-24.179688)">
    <use
       xlink:href="#glyph-2-2"
       x="202.86"
       y="94.279999"
       id="use4948" />
  </g>
  <g
     fill="#000000"
     fill-opacity="1"
     id="g4956"
     transform="translate(-3.960938,-24.179688)">
    <use
       xlink:href="#glyph-2-3"
       x="206.46001"
       y="94.279999"
       id="use4952" />
    <use
       xlink:href="#glyph-2-1"
       x="210.71999"
       y="94.279999"
       id="use4954" />
  </g>
  <g
     clip-path="url(#clip-5)"
     id="g4962"
     transform="translate(-3.960938,-24.179688)">
    <g
       fill="#000000"
       fill-opacity="1"
       id="g4960">
      <use
         xlink:href="#glyph-1-1"
         x="217.02"
         y="92.239998"
         id="use4958" />
    </g>
  </g>
  <g
     fill="#000000"
     fill-opacity="1"
     id="g4966"
     transform="translate(-3.960938,-24.179688)">
    <use
       xlink:href="#glyph-2-5"
       x="223.08"
       y="94.279999"
       id="use4964" />
  </g>
  <g
     fill="#000000"
     fill-opacity="1"
     id="g4970"
     transform="translate(-3.960938,-24.179688)">
    <use
       xlink:href="#glyph-2-8"
       x="228.36"
       y="94.279999"
       id="use4968" />
  </g>
  <g
     fill="#000000"
     fill-opacity="1"
     id="g4974"
     transform="translate(-3.960938,-24.179688)">
    <use
       xlink:href="#glyph-2-2"
       x="232.62"
       y="94.279999"
       id="use4972" />
  </g>
  <g
     fill="#000000"
     fill-opacity="1"
     id="g4980"
     transform="translate(-3.960938,-24.179688)">
    <use
       xlink:href="#glyph-2-3"
       x="236.22"
       y="94.279999"
       id="use4976" />
    <use
       xlink:href="#glyph-2-1"
       x="240.47998"
       y="94.279999"
       id="use4978" />
  </g>
  <g
     clip-path="url(#clip-6)"
     id="g4986"
     transform="translate(-3.960938,-24.179688)">
    <g
       fill="#000000"
       fill-opacity="1"
       id="g4984">
      <use
         xlink:href="#glyph-1-1"
         x="246.78"
         y="92.239998"
         id="use4982" />
    </g>
  </g>
  <g
     fill="#000000"
     fill-opacity="1"
     id="g4990"
     transform="translate(-3.960938,-24.179688)">
    <use
       xlink:href="#glyph-2-5"
       x="252.84"
       y="94.279999"
       id="use4988" />
  </g>
  <g
     fill="#000000"
     fill-opacity="1"
     id="g4994"
     transform="translate(-3.960938,-24.179688)">
    <use
       xlink:href="#glyph-2-9"
       x="258.12"
       y="94.279999"
       id="use4992" />
  </g>
  <g
     fill="#000000"
     fill-opacity="1"
     id="g4998"
     transform="translate(-3.960938,-24.179688)">
    <use
       xlink:href="#glyph-2-2"
       x="262.38"
       y="94.279999"
       id="use4996" />
  </g>
  <g
     fill="#000000"
     fill-opacity="1"
     id="g5004"
     transform="translate(-3.960938,-24.179688)">
    <use
       xlink:href="#glyph-2-3"
       x="265.98001"
       y="94.279999"
       id="use5000" />
    <use
       xlink:href="#glyph-2-1"
       x="270.23999"
       y="94.279999"
       id="use5002" />
  </g>
  <g
     clip-path="url(#clip-7)"
     id="g5010"
     transform="translate(-3.960938,-24.179688)">
    <g
       fill="#000000"
       fill-opacity="1"
       id="g5008">
      <use
         xlink:href="#glyph-1-1"
         x="276.56"
         y="92.239998"
         id="use5006" />
    </g>
  </g>
  <g
     fill="#000000"
     fill-opacity="1"
     id="g5014"
     transform="translate(-3.960938,-24.179688)">
    <use
       xlink:href="#glyph-2-5"
       x="282.62"
       y="94.279999"
       id="use5012" />
  </g>
  <g
     fill="#000000"
     fill-opacity="1"
     id="g5018"
     transform="translate(-3.960938,-24.179688)">
    <use
       xlink:href="#glyph-2-10"
       x="287.89999"
       y="94.279999"
       id="use5016" />
  </g>
  <g
     fill="#000000"
     fill-opacity="1"
     id="g5022"
     transform="translate(-3.960938,-24.179688)">
    <use
       xlink:href="#glyph-2-2"
       x="292.16"
       y="94.279999"
       id="use5020" />
  </g>
  <g
     fill="#000000"
     fill-opacity="1"
     id="g5028"
     transform="translate(-3.960938,-24.179688)">
    <use
       xlink:href="#glyph-2-3"
       x="295.76001"
       y="94.279999"
       id="use5024" />
    <use
       xlink:href="#glyph-2-1"
       x="300.01999"
       y="94.279999"
       id="use5026" />
  </g>
  <g
     clip-path="url(#clip-8)"
     id="g5034"
     transform="translate(-3.960938,-24.179688)">
    <g
       fill="#000000"
       fill-opacity="1"
       id="g5032">
      <use
         xlink:href="#glyph-1-1"
         x="306.32001"
         y="92.239998"
         id="use5030" />
    </g>
  </g>
  <g
     fill="#000000"
     fill-opacity="1"
     id="g5038"
     transform="translate(-3.960938,-24.179688)">
    <use
       xlink:href="#glyph-2-5"
       x="312.38"
       y="94.279999"
       id="use5036" />
  </g>
  <g
     fill="#000000"
     fill-opacity="1"
     id="g5042"
     transform="translate(-3.960938,-24.179688)">
    <use
       xlink:href="#glyph-2-3"
       x="317.66"
       y="94.279999"
       id="use5040" />
  </g>
  <g
     fill="#000000"
     fill-opacity="1"
     id="g5046"
     transform="translate(-3.960938,-24.179688)">
    <use
       xlink:href="#glyph-2-2"
       x="321.92001"
       y="94.279999"
       id="use5044" />
  </g>
  <g
     fill="#000000"
     fill-opacity="1"
     id="g5052"
     transform="translate(-3.960938,-24.179688)">
    <use
       xlink:href="#glyph-2-3"
       x="325.51999"
       y="94.279999"
       id="use5048" />
    <use
       xlink:href="#glyph-2-1"
       x="329.77997"
       y="94.279999"
       id="use5050" />
  </g>
  <g
     fill="#000000"
     fill-opacity="1"
     id="g5056"
     transform="translate(-3.960938,-24.179688)">
    <use
       xlink:href="#glyph-1-1"
       x="341.89999"
       y="92.599998"
       id="use5054" />
  </g>
  <g
     fill="#000000"
     fill-opacity="1"
     id="g5062"
     transform="translate(-3.960938,-24.179688)">
    <use
       xlink:href="#glyph-2-11"
       x="347.95999"
       y="94.639999"
       id="use5058" />
    <use
       xlink:href="#glyph-2-12"
       x="353.18002"
       y="94.639999"
       id="use5060" />
  </g>
  <g
     fill="#000000"
     fill-opacity="1"
     id="g5066"
     transform="translate(-3.960938,-24.179688)">
    <use
       xlink:href="#glyph-1-1"
       x="368.54001"
       y="92.239998"
       id="use5064" />
  </g>
  <g
     fill="#000000"
     fill-opacity="1"
     id="g5070"
     transform="translate(-3.960938,-24.179688)">
    <use
       xlink:href="#glyph-2-3"
       x="374.35999"
       y="94.279999"
       id="use5068" />
  </g>
  <g
     fill="#000000"
     fill-opacity="1"
     id="g5074"
     transform="translate(-3.960938,-24.179688)">
    <use
       xlink:href="#glyph-2-2"
       x="378.62"
       y="94.279999"
       id="use5072" />
  </g>
  <g
     fill="#000000"
     fill-opacity="1"
     id="g5080"
     transform="translate(-3.960938,-24.179688)">
    <use
       xlink:href="#glyph-2-3"
       x="382.28"
       y="94.279999"
       id="use5076" />
    <use
       xlink:href="#glyph-2-1"
       x="386.53998"
       y="94.279999"
       id="use5078" />
  </g>
  <g
     fill="#000000"
     fill-opacity="1"
     id="g5084"
     transform="translate(-3.960938,-24.179688)">
    <use
       xlink:href="#glyph-1-1"
       x="398.26001"
       y="92.239998"
       id="use5082" />
  </g>
  <g
     fill="#000000"
     fill-opacity="1"
     id="g5088"
     transform="translate(-3.960938,-24.179688)">
    <use
       xlink:href="#glyph-2-10"
       x="404.32001"
       y="94.279999"
       id="use5086" />
  </g>
  <g
     fill="#000000"
     fill-opacity="1"
     id="g5092"
     transform="translate(-3.960938,-24.179688)">
    <use
       xlink:href="#glyph-2-2"
       x="408.57999"
       y="94.279999"
       id="use5090" />
  </g>
  <g
     fill="#000000"
     fill-opacity="1"
     id="g5098"
     transform="translate(-3.960938,-24.179688)">
    <use
       xlink:href="#glyph-2-3"
       x="412.17999"
       y="94.279999"
       id="use5094" />
    <use
       xlink:href="#glyph-2-1"
       x="416.43997"
       y="94.279999"
       id="use5096" />
  </g>
  <g
     fill="#000000"
     fill-opacity="1"
     id="g5102"
     transform="translate(-3.960938,-24.179688)">
    <use
       xlink:href="#glyph-1-1"
       x="428.01999"
       y="92.239998"
       id="use5100" />
  </g>
  <g
     fill="#000000"
     fill-opacity="1"
     id="g5106"
     transform="translate(-3.960938,-24.179688)">
    <use
       xlink:href="#glyph-2-9"
       x="434.07999"
       y="94.279999"
       id="use5104" />
  </g>
  <g
     fill="#000000"
     fill-opacity="1"
     id="g5110"
     transform="translate(-3.960938,-24.179688)">
    <use
       xlink:href="#glyph-2-2"
       x="438.34"
       y="94.279999"
       id="use5108" />
  </g>
  <g
     fill="#000000"
     fill-opacity="1"
     id="g5116"
     transform="translate(-3.960938,-24.179688)">
    <use
       xlink:href="#glyph-2-3"
       x="441.94"
       y="94.279999"
       id="use5112" />
    <use
       xlink:href="#glyph-2-1"
       x="446.19998"
       y="94.279999"
       id="use5114" />
  </g>
  <g
     fill="#000000"
     fill-opacity="1"
     id="g5120"
     transform="translate(-3.960938,-24.179688)">
    <use
       xlink:href="#glyph-1-1"
       x="457.78"
       y="92.239998"
       id="use5118" />
  </g>
  <g
     fill="#000000"
     fill-opacity="1"
     id="g5124"
     transform="translate(-3.960938,-24.179688)">
    <use
       xlink:href="#glyph-2-8"
       x="463.84"
       y="94.279999"
       id="use5122" />
  </g>
  <g
     fill="#000000"
     fill-opacity="1"
     id="g5128"
     transform="translate(-3.960938,-24.179688)">
    <use
       xlink:href="#glyph-2-2"
       x="468.10001"
       y="94.279999"
       id="use5126" />
  </g>
  <g
     fill="#000000"
     fill-opacity="1"
     id="g5134"
     transform="translate(-3.960938,-24.179688)">
    <use
       xlink:href="#glyph-2-3"
       x="471.70001"
       y="94.279999"
       id="use5130" />
    <use
       xlink:href="#glyph-2-1"
       x="475.95999"
       y="94.279999"
       id="use5132" />
  </g>
  <g
     fill="#000000"
     fill-opacity="1"
     id="g5138"
     transform="translate(-3.960938,-24.179688)">
    <use
       xlink:href="#glyph-1-1"
       x="487.56"
       y="92.239998"
       id="use5136" />
  </g>
  <g
     fill="#000000"
     fill-opacity="1"
     id="g5142"
     transform="translate(-3.960938,-24.179688)">
    <use
       xlink:href="#glyph-2-7"
       x="493.62"
       y="94.279999"
       id="use5140" />
  </g>
  <g
     fill="#000000"
     fill-opacity="1"
     id="g5146"
     transform="translate(-3.960938,-24.179688)">
    <use
       xlink:href="#glyph-2-2"
       x="497.88"
       y="94.279999"
       id="use5144" />
  </g>
  <g
     fill="#000000"
     fill-opacity="1"
     id="g5152"
     transform="translate(-3.960938,-24.179688)">
    <use
       xlink:href="#glyph-2-3"
       x="501.48001"
       y="94.279999"
       id="use5148" />
    <use
       xlink:href="#glyph-2-1"
       x="505.73999"
       y="94.279999"
       id="use5150" />
  </g>
  <g
     fill="#000000"
     fill-opacity="1"
     id="g5156"
     transform="translate(-3.960938,-24.179688)">
    <use
       xlink:href="#glyph-1-1"
       x="517.32001"
       y="92.239998"
       id="use5154" />
  </g>
  <g
     fill="#000000"
     fill-opacity="1"
     id="g5160"
     transform="translate(-3.960938,-24.179688)">
    <use
       xlink:href="#glyph-2-1"
       x="523.38"
       y="94.279999"
       id="use5158" />
  </g>
  <g
     fill="#000000"
     fill-opacity="1"
     id="g5164"
     transform="translate(-3.960938,-24.179688)">
    <use
       xlink:href="#glyph-2-2"
       x="527.64001"
       y="94.279999"
       id="use5162" />
  </g>
  <g
     fill="#000000"
     fill-opacity="1"
     id="g5170"
     transform="translate(-3.960938,-24.179688)">
    <use
       xlink:href="#glyph-2-3"
       x="531.23999"
       y="94.279999"
       id="use5166" />
    <use
       xlink:href="#glyph-2-1"
       x="535.5"
       y="94.279999"
       id="use5168" />
  </g>
  <g
     fill="#000000"
     fill-opacity="1"
     id="g5174"
     transform="translate(-3.960938,-24.179688)">
    <use
       xlink:href="#glyph-1-1"
       x="547.08002"
       y="92.239998"
       id="use5172" />
  </g>
  <g
     fill="#000000"
     fill-opacity="1"
     id="g5178"
     transform="translate(-3.960938,-24.179688)">
    <use
       xlink:href="#glyph-2-4"
       x="553.14001"
       y="94.279999"
       id="use5176" />
  </g>
  <g
     fill="#000000"
     fill-opacity="1"
     id="g5182"
     transform="translate(-3.960938,-24.179688)">
    <use
       xlink:href="#glyph-2-2"
       x="557.40002"
       y="94.279999"
       id="use5180" />
  </g>
  <g
     fill="#000000"
     fill-opacity="1"
     id="g5188"
     transform="translate(-3.960938,-24.179688)">
    <use
       xlink:href="#glyph-2-3"
       x="561"
       y="94.279999"
       id="use5184" />
    <use
       xlink:href="#glyph-2-1"
       x="565.26001"
       y="94.279999"
       id="use5186" />
  </g>
  <g
     clip-path="url(#clip-9)"
     id="g5194"
     transform="translate(-3.960938,-24.179688)">
    <g
       fill="#000000"
       fill-opacity="1"
       id="g5192">
      <use
         xlink:href="#glyph-1-1"
         x="574.20001"
         y="92.239998"
         id="use5190" />
    </g>
  </g>
  <g
     fill="#000000"
     fill-opacity="1"
     id="g5198"
     transform="translate(-3.960938,-24.179688)">
    <use
       xlink:href="#glyph-2-5"
       x="580.26001"
       y="94.279999"
       id="use5196" />
  </g>
  <g
     fill="#000000"
     fill-opacity="1"
     id="g5202"
     transform="translate(-3.960938,-24.179688)">
    <use
       xlink:href="#glyph-2-6"
       x="585.53998"
       y="94.279999"
       id="use5200" />
  </g>
  <g
     fill="#000000"
     fill-opacity="1"
     id="g5206"
     transform="translate(-3.960938,-24.179688)">
    <use
       xlink:href="#glyph-2-2"
       x="589.79999"
       y="94.279999"
       id="use5204" />
  </g>
  <g
     fill="#000000"
     fill-opacity="1"
     id="g5212"
     transform="translate(-3.960938,-24.179688)">
    <use
       xlink:href="#glyph-2-3"
       x="593.40002"
       y="94.279999"
       id="use5208" />
    <use
       xlink:href="#glyph-2-1"
       x="597.65997"
       y="94.279999"
       id="use5210" />
  </g>
  <g
     clip-path="url(#clip-10)"
     id="g5218"
     transform="translate(-3.960938,-24.179688)">
    <g
       fill="#000000"
       fill-opacity="1"
       id="g5216">
      <use
         xlink:href="#glyph-1-1"
         x="603.97998"
         y="92.239998"
         id="use5214" />
    </g>
  </g>
  <g
     fill="#000000"
     fill-opacity="1"
     id="g5222"
     transform="translate(-3.960938,-24.179688)">
    <use
       xlink:href="#glyph-2-5"
       x="610.03998"
       y="94.279999"
       id="use5220" />
  </g>
  <g
     fill="#000000"
     fill-opacity="1"
     id="g5226"
     transform="translate(-3.960938,-24.179688)">
    <use
       xlink:href="#glyph-2-4"
       x="615.32001"
       y="94.279999"
       id="use5224" />
  </g>
  <g
     fill="#000000"
     fill-opacity="1"
     id="g5230"
     transform="translate(-3.960938,-24.179688)">
    <use
       xlink:href="#glyph-2-2"
       x="619.58002"
       y="94.279999"
       id="use5228" />
  </g>
  <g
     fill="#000000"
     fill-opacity="1"
     id="g5236"
     transform="translate(-3.960938,-24.179688)">
    <use
       xlink:href="#glyph-2-3"
       x="623.17999"
       y="94.279999"
       id="use5232" />
    <use
       xlink:href="#glyph-2-1"
       x="627.44"
       y="94.279999"
       id="use5234" />
  </g>
  <g
     clip-path="url(#clip-11)"
     id="g5242"
     transform="translate(-3.960938,-24.179688)">
    <g
       fill="#000000"
       fill-opacity="1"
       id="g5240">
      <use
         xlink:href="#glyph-1-1"
         x="633.73999"
         y="92.239998"
         id="use5238" />
    </g>
  </g>
  <g
     fill="#000000"
     fill-opacity="1"
     id="g5246"
     transform="translate(-3.960938,-24.179688)">
    <use
       xlink:href="#glyph-2-5"
       x="639.79999"
       y="94.279999"
       id="use5244" />
  </g>
  <g
     fill="#000000"
     fill-opacity="1"
     id="g5250"
     transform="translate(-3.960938,-24.179688)">
    <use
       xlink:href="#glyph-2-1"
       x="645.08002"
       y="94.279999"
       id="use5248" />
  </g>
  <g
     fill="#000000"
     fill-opacity="1"
     id="g5254"
     transform="translate(-3.960938,-24.179688)">
    <use
       xlink:href="#glyph-2-2"
       x="649.34003"
       y="94.279999"
       id="use5252" />
  </g>
  <g
     fill="#000000"
     fill-opacity="1"
     id="g5260"
     transform="translate(-3.960938,-24.179688)">
    <use
       xlink:href="#glyph-2-3"
       x="652.94"
       y="94.279999"
       id="use5256" />
    <use
       xlink:href="#glyph-2-1"
       x="657.19995"
       y="94.279999"
       id="use5258" />
  </g>
  <g
     fill="#000000"
     fill-opacity="1"
     id="g5264"
     transform="translate(-3.960938,-24.179688)">
    <use
       xlink:href="#glyph-1-2"
       x="673.76001"
       y="92.599998"
       id="use5262" />
  </g>
  <g
     fill="#000000"
     fill-opacity="1"
     id="g5268"
     transform="translate(-3.960938,-24.179688)">
    <use
       xlink:href="#glyph-3-1"
       x="19.559999"
       y="122.12"
       id="use5266" />
  </g>
  <g
     fill="#000000"
     fill-opacity="1"
     id="g5272"
     transform="translate(-3.960938,-24.179688)">
    <use
       xlink:href="#glyph-3-2"
       x="45.360001"
       y="123.62"
       id="use5270" />
  </g>
  <path
     fill-rule="evenodd"
     fill="#000000"
     fill-opacity="1"
     d="m 51.472656,96.640622 h 6.121094 v -0.71875 h -6.121094 z m 0,0"
     id="path5274" />
  <g
     fill="#000000"
     fill-opacity="1"
     id="g5278"
     transform="translate(-3.960938,-24.179688)">
    <use
       xlink:href="#glyph-3-3"
       x="55.439999"
       y="115.28"
       id="use5276" />
  </g>
  <g
     fill="#000000"
     fill-opacity="1"
     id="g5282"
     transform="translate(-3.960938,-24.179688)">
    <use
       xlink:href="#glyph-3-4"
       x="55.439999"
       y="130.94"
       id="use5280" />
  </g>
  <g
     fill="#000000"
     fill-opacity="1"
     id="g5286"
     transform="translate(-3.960938,-24.179688)">
    <use
       xlink:href="#glyph-3-2"
       x="72.059998"
       y="123.46"
       id="use5284" />
  </g>
  <path
     fill-rule="evenodd"
     fill="#000000"
     fill-opacity="1"
     d="m 78.179687,95.753902 h 12.238281 v 0.72266 H 78.179687 Z m 0,0"
     id="path5288" />
  <g
     fill="#000000"
     fill-opacity="1"
     id="g5292"
     transform="translate(-3.960938,-24.179688)">
    <use
       xlink:href="#glyph-3-5"
       x="85.199997"
       y="115.12"
       id="use5290" />
  </g>
  <g
     fill="#000000"
     fill-opacity="1"
     id="g5298"
     transform="translate(-3.960938,-24.179688)">
    <use
       xlink:href="#glyph-3-6"
       x="82.139999"
       y="130.78"
       id="use5294" />
    <use
       xlink:href="#glyph-3-7"
       x="88.20002"
       y="130.78"
       id="use5296" />
  </g>
  <g
     fill="#000000"
     fill-opacity="1"
     id="g5302"
     transform="translate(-3.960938,-24.179688)">
    <use
       xlink:href="#glyph-3-2"
       x="103.78"
       y="123.5"
       id="use5300" />
  </g>
  <path
     fill-rule="evenodd"
     fill="#000000"
     fill-opacity="1"
     d="M 109.8789,96.519532 H 116 v -0.71875 h -6.1211 z m 0,0"
     id="path5304" />
  <g
     fill="#000000"
     fill-opacity="1"
     id="g5308"
     transform="translate(-3.960938,-24.179688)">
    <use
       xlink:href="#glyph-3-6"
       x="113.86"
       y="115.16"
       id="use5306" />
  </g>
  <g
     fill="#000000"
     fill-opacity="1"
     id="g5312"
     transform="translate(-3.960938,-24.179688)">
    <use
       xlink:href="#glyph-3-8"
       x="113.86"
       y="130.82001"
       id="use5310" />
  </g>
  <g
     fill="#000000"
     fill-opacity="1"
     id="g5316"
     transform="translate(-3.960938,-24.179688)">
    <use
       xlink:href="#glyph-3-2"
       x="130.48"
       y="123.44"
       id="use5314" />
  </g>
  <path
     fill-rule="evenodd"
     fill="#000000"
     fill-opacity="1"
     d="m 136.58984,95.738282 h 12.23828 v 0.71875 h -12.23828 z m 0,0"
     id="path5318" />
  <g
     fill="#000000"
     fill-opacity="1"
     id="g5322"
     transform="translate(-3.960938,-24.179688)">
    <use
       xlink:href="#glyph-3-9"
       x="143.62"
       y="115.1"
       id="use5320" />
  </g>
  <g
     fill="#000000"
     fill-opacity="1"
     id="g5328"
     transform="translate(-3.960938,-24.179688)">
    <use
       xlink:href="#glyph-3-6"
       x="140.56"
       y="130.75999"
       id="use5324" />
    <use
       xlink:href="#glyph-3-7"
       x="146.62003"
       y="130.75999"
       id="use5326" />
  </g>
  <g
     fill="#000000"
     fill-opacity="1"
     id="g5332"
     transform="translate(-3.960938,-24.179688)">
    <use
       xlink:href="#glyph-3-2"
       x="163.3"
       y="123.46"
       id="use5330" />
  </g>
  <path
     fill-rule="evenodd"
     fill="#000000"
     fill-opacity="1"
     d="m 169.41015,96.476562 h 6.11719 v -0.72266 h -6.11719 z m 0,0"
     id="path5334" />
  <g
     fill="#000000"
     fill-opacity="1"
     id="g5338"
     transform="translate(-3.960938,-24.179688)">
    <use
       xlink:href="#glyph-3-10"
       x="173.38"
       y="115.12"
       id="use5336" />
  </g>
  <g
     fill="#000000"
     fill-opacity="1"
     id="g5342"
     transform="translate(-3.960938,-24.179688)">
    <use
       xlink:href="#glyph-3-4"
       x="173.38"
       y="130.78"
       id="use5340" />
  </g>
  <g
     fill="#000000"
     fill-opacity="1"
     id="g5346"
     transform="translate(-3.960938,-24.179688)">
    <use
       xlink:href="#glyph-3-2"
       x="190.02"
       y="123.62"
       id="use5344" />
  </g>
  <path
     fill-rule="evenodd"
     fill="#000000"
     fill-opacity="1"
     d="m 196.11718,95.921872 h 12.24219 v 0.71875 h -12.24219 z m 0,0"
     id="path5348" />
  <g
     fill="#000000"
     fill-opacity="1"
     id="g5352"
     transform="translate(-3.960938,-24.179688)">
    <use
       xlink:href="#glyph-3-3"
       x="203.16"
       y="115.28"
       id="use5350" />
  </g>
  <g
     fill="#000000"
     fill-opacity="1"
     id="g5358"
     transform="translate(-3.960938,-24.179688)">
    <use
       xlink:href="#glyph-3-6"
       x="200.10001"
       y="130.94"
       id="use5354" />
    <use
       xlink:href="#glyph-3-7"
       x="206.16002"
       y="130.94"
       id="use5356" />
  </g>
  <g
     fill="#000000"
     fill-opacity="1"
     id="g5362"
     transform="translate(-3.960938,-24.179688)">
    <use
       xlink:href="#glyph-3-2"
       x="222.84"
       y="123.5"
       id="use5360" />
  </g>
  <path
     fill-rule="evenodd"
     fill="#000000"
     fill-opacity="1"
     d="m 228.9375,96.519532 h 6.12109 v -0.71875 h -6.12109 z m 0,0"
     id="path5364" />
  <g
     fill="#000000"
     fill-opacity="1"
     id="g5368"
     transform="translate(-3.960938,-24.179688)">
    <use
       xlink:href="#glyph-3-6"
       x="232.92"
       y="115.16"
       id="use5366" />
  </g>
  <g
     fill="#000000"
     fill-opacity="1"
     id="g5372"
     transform="translate(-3.960938,-24.179688)">
    <use
       xlink:href="#glyph-3-11"
       x="232.92"
       y="130.82001"
       id="use5370" />
  </g>
  <g
     fill="#000000"
     fill-opacity="1"
     id="g5376"
     transform="translate(-3.960938,-24.179688)">
    <use
       xlink:href="#glyph-3-2"
       x="249.53999"
       y="123.46"
       id="use5374" />
  </g>
  <path
     fill-rule="evenodd"
     fill="#000000"
     fill-opacity="1"
     d="m 255.64843,95.753902 h 12.24219 v 0.72266 h -12.24219 z m 0,0"
     id="path5378" />
  <g
     fill="#000000"
     fill-opacity="1"
     id="g5382"
     transform="translate(-3.960938,-24.179688)">
    <use
       xlink:href="#glyph-3-10"
       x="262.67999"
       y="115.12"
       id="use5380" />
  </g>
  <g
     fill="#000000"
     fill-opacity="1"
     id="g5388"
     transform="translate(-3.960938,-24.179688)">
    <use
       xlink:href="#glyph-3-6"
       x="259.62"
       y="130.78"
       id="use5384" />
    <use
       xlink:href="#glyph-3-7"
       x="265.68002"
       y="130.78"
       id="use5386" />
  </g>
  <g
     fill="#000000"
     fill-opacity="1"
     id="g5392"
     transform="translate(-3.960938,-24.179688)">
    <use
       xlink:href="#glyph-3-2"
       x="282.35999"
       y="123.46"
       id="use5390" />
  </g>
  <path
     fill-rule="evenodd"
     fill="#000000"
     fill-opacity="1"
     d="m 288.46875,96.476562 h 6.12109 v -0.72266 h -6.12109 z m 0,0"
     id="path5394" />
  <g
     fill="#000000"
     fill-opacity="1"
     id="g5398"
     transform="translate(-3.960938,-24.179688)">
    <use
       xlink:href="#glyph-3-6"
       x="292.44"
       y="115.12"
       id="use5396" />
  </g>
  <g
     fill="#000000"
     fill-opacity="1"
     id="g5402"
     transform="translate(-3.960938,-24.179688)">
    <use
       xlink:href="#glyph-3-4"
       x="292.44"
       y="130.78"
       id="use5400" />
  </g>
  <g
     fill="#000000"
     fill-opacity="1"
     id="g5406"
     transform="translate(-3.960938,-24.179688)">
    <use
       xlink:href="#glyph-3-2"
       x="309.07999"
       y="123.46"
       id="use5404" />
  </g>
  <path
     fill-rule="evenodd"
     fill="#000000"
     fill-opacity="1"
     d="m 315.16797,95.753902 h 12.24218 v 0.72266 h -12.24218 z m 0,0"
     id="path5408" />
  <g
     fill="#000000"
     fill-opacity="1"
     id="g5412"
     transform="translate(-3.960938,-24.179688)">
    <use
       xlink:href="#glyph-3-6"
       x="322.22"
       y="115.12"
       id="use5410" />
  </g>
  <g
     fill="#000000"
     fill-opacity="1"
     id="g5418"
     transform="translate(-3.960938,-24.179688)">
    <use
       xlink:href="#glyph-3-6"
       x="319.16"
       y="130.78"
       id="use5414" />
    <use
       xlink:href="#glyph-3-7"
       x="325.22003"
       y="130.78"
       id="use5416" />
  </g>
  <g
     fill="#000000"
     fill-opacity="1"
     id="g5422"
     transform="translate(-3.960938,-24.179688)">
    <use
       xlink:href="#glyph-3-12"
       x="346.94"
       y="122.12"
       id="use5420" />
  </g>
  <path
     fill-rule="evenodd"
     fill="#000000"
     fill-opacity="1"
     d="m 369.66015,95.753902 h 12.23828 v 0.72266 h -12.23828 z m 0,0"
     id="path5424" />
  <g
     fill="#000000"
     fill-opacity="1"
     id="g5428"
     transform="translate(-3.960938,-24.179688)">
    <use
       xlink:href="#glyph-3-6"
       x="376.70001"
       y="115.12"
       id="use5426" />
  </g>
  <g
     fill="#000000"
     fill-opacity="1"
     id="g5434"
     transform="translate(-3.960938,-24.179688)">
    <use
       xlink:href="#glyph-3-6"
       x="373.64001"
       y="130.78"
       id="use5430" />
    <use
       xlink:href="#glyph-3-7"
       x="379.70001"
       y="130.78"
       id="use5432" />
  </g>
  <path
     fill-rule="evenodd"
     fill="#000000"
     fill-opacity="1"
     d="m 402.48047,96.476562 h 6.11718 v -0.72266 h -6.11718 z m 0,0"
     id="path5436" />
  <g
     fill="#000000"
     fill-opacity="1"
     id="g5440"
     transform="translate(-3.960938,-24.179688)">
    <use
       xlink:href="#glyph-3-6"
       x="406.48001"
       y="115.12"
       id="use5438" />
  </g>
  <g
     fill="#000000"
     fill-opacity="1"
     id="g5444"
     transform="translate(-3.960938,-24.179688)">
    <use
       xlink:href="#glyph-3-4"
       x="406.48001"
       y="130.78"
       id="use5442" />
  </g>
  <path
     fill-rule="evenodd"
     fill="#000000"
     fill-opacity="1"
     d="m 429.1875,95.753902 h 12.24218 v 0.72266 H 429.1875 Z m 0,0"
     id="path5446" />
  <g
     fill="#000000"
     fill-opacity="1"
     id="g5450"
     transform="translate(-3.960938,-24.179688)">
    <use
       xlink:href="#glyph-3-10"
       x="436.23999"
       y="115.12"
       id="use5448" />
  </g>
  <g
     fill="#000000"
     fill-opacity="1"
     id="g5456"
     transform="translate(-3.960938,-24.179688)">
    <use
       xlink:href="#glyph-3-6"
       x="433.17999"
       y="130.78"
       id="use5452" />
    <use
       xlink:href="#glyph-3-7"
       x="439.24002"
       y="130.78"
       id="use5454" />
  </g>
  <path
     fill-rule="evenodd"
     fill="#000000"
     fill-opacity="1"
     d="m 462.00781,96.519532 h 6.12109 v -0.71875 h -6.12109 z m 0,0"
     id="path5458" />
  <g
     fill="#000000"
     fill-opacity="1"
     id="g5462"
     transform="translate(-3.960938,-24.179688)">
    <use
       xlink:href="#glyph-3-6"
       x="466"
       y="115.16"
       id="use5460" />
  </g>
  <g
     fill="#000000"
     fill-opacity="1"
     id="g5466"
     transform="translate(-3.960938,-24.179688)">
    <use
       xlink:href="#glyph-3-11"
       x="466"
       y="130.82001"
       id="use5464" />
  </g>
  <path
     fill-rule="evenodd"
     fill="#000000"
     fill-opacity="1"
     d="m 488.71093,95.921872 h 12.23829 v 0.71875 h -12.23829 z m 0,0"
     id="path5468" />
  <g
     fill="#000000"
     fill-opacity="1"
     id="g5472"
     transform="translate(-3.960938,-24.179688)">
    <use
       xlink:href="#glyph-3-3"
       x="495.76001"
       y="115.28"
       id="use5470" />
  </g>
  <g
     fill="#000000"
     fill-opacity="1"
     id="g5478"
     transform="translate(-3.960938,-24.179688)">
    <use
       xlink:href="#glyph-3-6"
       x="492.70001"
       y="130.94"
       id="use5474" />
    <use
       xlink:href="#glyph-3-7"
       x="498.76001"
       y="130.94"
       id="use5476" />
  </g>
  <path
     fill-rule="evenodd"
     fill="#000000"
     fill-opacity="1"
     d="m 521.53906,96.476562 h 6.12109 v -0.72266 h -6.12109 z m 0,0"
     id="path5480" />
  <g
     fill="#000000"
     fill-opacity="1"
     id="g5484"
     transform="translate(-3.960938,-24.179688)">
    <use
       xlink:href="#glyph-3-10"
       x="525.53998"
       y="115.12"
       id="use5482" />
  </g>
  <g
     fill="#000000"
     fill-opacity="1"
     id="g5488"
     transform="translate(-3.960938,-24.179688)">
    <use
       xlink:href="#glyph-3-4"
       x="525.53998"
       y="130.78"
       id="use5486" />
  </g>
  <path
     fill-rule="evenodd"
     fill="#000000"
     fill-opacity="1"
     d="m 548.23828,95.738282 h 12.24219 v 0.71875 h -12.24219 z m 0,0"
     id="path5490" />
  <g
     fill="#000000"
     fill-opacity="1"
     id="g5494"
     transform="translate(-3.960938,-24.179688)">
    <use
       xlink:href="#glyph-3-9"
       x="555.29999"
       y="115.1"
       id="use5492" />
  </g>
  <g
     fill="#000000"
     fill-opacity="1"
     id="g5500"
     transform="translate(-3.960938,-24.179688)">
    <use
       xlink:href="#glyph-3-6"
       x="552.23999"
       y="130.75999"
       id="use5496" />
    <use
       xlink:href="#glyph-3-7"
       x="558.30005"
       y="130.75999"
       id="use5498" />
  </g>
  <path
     fill-rule="evenodd"
     fill="#000000"
     fill-opacity="1"
     d="m 581.07031,96.519532 h 6.11719 v -0.71875 h -6.11719 z m 0,0"
     id="path5502" />
  <g
     fill="#000000"
     fill-opacity="1"
     id="g5506"
     transform="translate(-3.960938,-24.179688)">
    <use
       xlink:href="#glyph-3-6"
       x="585.06"
       y="115.16"
       id="use5504" />
  </g>
  <g
     fill="#000000"
     fill-opacity="1"
     id="g5510"
     transform="translate(-3.960938,-24.179688)">
    <use
       xlink:href="#glyph-3-8"
       x="585.06"
       y="130.82001"
       id="use5508" />
  </g>
  <path
     fill-rule="evenodd"
     fill="#000000"
     fill-opacity="1"
     d="m 607.76953,95.753902 h 12.23828 v 0.72266 h -12.23828 z m 0,0"
     id="path5512" />
  <g
     fill="#000000"
     fill-opacity="1"
     id="g5516"
     transform="translate(-3.960938,-24.179688)">
    <use
       xlink:href="#glyph-3-5"
       x="614.84003"
       y="115.12"
       id="use5514" />
  </g>
  <g
     fill="#000000"
     fill-opacity="1"
     id="g5522"
     transform="translate(-3.960938,-24.179688)">
    <use
       xlink:href="#glyph-3-6"
       x="611.76001"
       y="130.78"
       id="use5518" />
    <use
       xlink:href="#glyph-3-7"
       x="617.82001"
       y="130.78"
       id="use5520" />
  </g>
  <path
     fill-rule="evenodd"
     fill="#000000"
     fill-opacity="1"
     d="m 640.59765,96.640622 h 6.1211 v -0.71875 h -6.1211 z m 0,0"
     id="path5524" />
  <g
     fill="#000000"
     fill-opacity="1"
     id="g5528"
     transform="translate(-3.960938,-24.179688)">
    <use
       xlink:href="#glyph-3-3"
       x="644.59998"
       y="115.28"
       id="use5526" />
  </g>
  <g
     fill="#000000"
     fill-opacity="1"
     id="g5532"
     transform="translate(-3.960938,-24.179688)">
    <use
       xlink:href="#glyph-3-4"
       x="644.59998"
       y="130.94"
       id="use5530" />
  </g>
  <g
     fill="#000000"
     fill-opacity="1"
     id="g5536"
     transform="translate(-3.960938,-24.179688)">
    <use
       xlink:href="#glyph-3-1"
       x="673.28003"
       y="122.12"
       id="use5534" />
  </g>
  <path
     fill-rule="nonzero"
     fill="#0d0d0d"
     fill-opacity="1"
     d="m 106.21875,43.410156 1.96875,-1.378906 2.12109,-1.371094 2.26953,-1.339844 L 114.98047,38 l 2.52734,-1.300782 2.67188,-1.277343 2.78906,-1.25 2.92187,-1.242188 3.03906,-1.210937 3.16797,-1.1875 3.29297,-1.171875 3.41016,-1.148438 7.13672,-2.21875 7.58984,-2.132812 8.01172,-2.039063 8.41016,-1.941406 8.80078,-1.839844 9.16015,-1.738281 9.5,-1.628906 9.82813,-1.53125 10.14062,-1.421875 10.42188,-1.308594 10.67969,-1.199219 10.9375,-1.082031 11.16015,-0.96875 11.3711,-0.839844 11.55859,-0.71875 L 295.23047,5 l 11.8789,-0.480469 12.00781,-0.339844 12.1211,-0.210937 12.21094,-0.08984 12.28125,0.07031 12.32812,0.191407 12.37109,0.339843 12.37891,0.46875 12.37109,0.621094 12.34766,0.78125 15.18359,1.160156 7.40625,0.648438 7.29297,0.71875 7.16016,0.75 7.02734,0.8125 6.90235,0.847656 6.76953,0.902344 6.60937,0.9375 6.46875,0.992187 6.32032,1.039063 6.17187,1.070312 6.00781,1.121094 5.83985,1.160156 5.67968,1.199219 5.51172,1.238281 5.33203,1.28125 5.14844,1.308594 4.96875,1.351563 4.78125,1.390625 4.60156,1.417968 4.39844,1.460938 4.19922,1.480469 3.99219,1.519531 3.78906,1.550781 3.57031,1.578125 3.35938,1.609375 3.14844,1.640625 2.92187,1.671875 3.30078,2.160156 -0.83203,1.257813 -3.26953,-2.148438 0.0391,0.01953 -2.89062,-1.648438 0.0234,0.01953 -3.12109,-1.628906 0.0195,0.0078 -3.33984,-1.601563 0.0312,0.01172 -3.5625,-1.570313 0.0195,0.01172 -3.76953,-1.550781 0.0195,0.0078 -3.98047,-1.519531 0.0234,0.01172 -4.19141,-1.480469 0.0195,0.01172 -4.3789,-1.460938 0.008,0.0078 -4.57813,-1.410156 h 0.008 l -4.76953,-1.386719 0.0117,0.0078 -4.94921,-1.347656 0.008,0.0078 -5.14844,-1.320313 0.008,0.01172 -5.30859,-1.28125 h 0.0117 l -5.5,-1.230469 h 0.008 l -5.66797,-1.199219 h 0.008 l -5.83984,-1.148437 h 0.0117 l -6,-1.121094 h 0.008 l -6.16015,-1.070312 h 0.0117 l -6.32031,-1.03125 h 0.008 l -6.45703,-0.988282 -6.60156,-0.949218 -6.75,-0.902344 -6.89062,-0.839844 h 0.0117 l -7.03125,-0.808594 h 0.0117 l -7.16015,-0.75 h 0.008 l -7.28906,-0.710937 h 0.0117 l -7.40235,-0.660156 0.0117,0.01172 -15.17187,-1.171875 h 0.0117 L 405.09765,7.070312 392.73828,6.449218 h 0.0117 l -12.3711,-0.46875 h 0.0117 L 368.02734,5.640625 h 0.0117 L 355.71093,5.441406 h 0.008 l -12.28125,-0.0625 h 0.0117 l -12.19922,0.08984 h 0.008 l -12.10938,0.210937 h 0.0117 l -12,0.339844 h 0.008 l -11.86719,0.472656 h 0.008 l -11.71875,0.597656 h 0.008 l -11.54687,0.71875 h 0.008 l -11.35937,0.851563 -11.14844,0.96875 h 0.008 l -10.92969,1.082031 h 0.0117 l -10.67187,1.1875 h 0.0117 l -10.41016,1.3125 h 0.008 l -10.11719,1.417969 0.008,-0.0078 -9.82032,1.527344 h 0.0117 l -9.49218,1.632813 h 0.0117 l -9.14219,1.738272 0.0117,-0.0078 -8.78125,1.839844 h 0.008 l -8.39844,1.929688 h 0.0195 l -8,2.027343 h 0.0195 l -7.5586,2.121094 0.0195,-0.0078 -7.1289,2.21875 h 0.0195 l -3.40235,1.140625 0.0117,-0.01172 -3.26953,1.171875 0.008,-0.01172 -3.14843,1.191406 0.0117,-0.01172 -3.03125,1.210937 0.0195,-0.01172 -2.91016,1.230469 h 0.0195 l -2.77734,1.25 0.0195,-0.0078 -2.65234,1.269531 0.0195,-0.01172 -2.50781,1.292969 0.0195,-0.01172 -2.39063,1.308594 0.0195,-0.0078 -2.23828,1.328125 0.0195,-0.01953 -2.10156,1.351563 0.0312,-0.01172 -1.96094,1.371094 z M 581.94922,39.992187 585,45.96875 578.39062,44.820312 Z m 0,0"
     id="path5538" />
</svg>
